<svg width="557" height="466" viewBox="0 0 557 466" fill="none" xmlns="http://www.w3.org/2000/svg">
<g clip-path="url(#clip0_780_1509)">
<rect width="556.549" height="465.9" fill="white"/>
<path d="M164.719 82.7752C164.719 82.8346 164.719 82.8643 164.689 82.9238H54.7874C54.7874 72.614 63.1362 64.2355 73.446 64.2355C76.4765 64.2355 79.3288 64.9485 81.8839 66.2558C84.6174 57.5505 93.5307 51.6083 103.484 53.5692C112.219 55.2924 118.369 63.1065 118.369 72.0198V72.1089C118.666 72.1683 119.171 72.5546 119.261 72.2575C122.529 61.8289 135.839 60.5216 145.02 61.4129C156.102 62.4825 166.471 70.6531 164.719 82.7752Z" fill="white"/>
<path d="M165.164 83.4586H54.2229V82.8941C54.2229 72.2872 62.8391 63.6413 73.446 63.6413C76.2685 63.6413 79.0019 64.2355 81.5571 65.424C84.7065 56.4512 94.0655 51.1032 103.573 52.975C112.308 54.6983 118.696 62.4231 118.904 71.485C123.123 59.6303 139.939 60.3137 145.05 60.8187C151.794 61.4724 158.034 64.6812 161.747 69.4053C164.748 73.238 165.966 77.8729 165.253 82.8347L165.164 83.4586ZM55.3519 82.3593H164.213C164.778 77.8729 163.649 73.6539 160.886 70.1183C157.38 65.6319 151.438 62.5717 144.961 61.9478C139.969 61.4724 123.42 60.7593 119.795 72.4061C119.736 72.6141 119.587 72.7626 119.409 72.8517C119.082 73.0003 118.755 72.8517 118.488 72.7329C118.429 72.7032 118.31 72.6438 118.28 72.6438L117.805 72.5844V72.0198C117.805 63.2848 111.744 55.7679 103.365 54.1337C94.1843 52.3214 85.1818 57.6397 82.4187 66.4341L82.2107 67.0581L81.6165 66.761C79.0614 65.4537 76.3279 64.8 73.446 64.8C63.6413 64.7703 55.649 72.6141 55.3519 82.3593Z" fill="#8CBFBE"/>
<path d="M485.807 454.432C481.172 454.432 477.428 457.373 477.428 460.998C477.428 462.513 478.111 463.939 479.211 465.068H455.709C452.738 456.69 451.134 447.687 451.134 438.298C451.134 428.91 452.738 419.907 455.709 411.529H479.24C478.111 410.4 477.428 409.003 477.428 407.458C477.428 403.834 481.172 400.892 485.807 400.892C490.441 400.892 494.185 403.834 494.185 407.458C494.185 409.003 493.502 410.4 492.373 411.529H504.703V431.613C503.603 430.544 502.237 429.92 500.751 429.92C497.126 429.92 494.185 433.663 494.185 438.298C494.185 442.933 497.126 446.677 500.751 446.677C502.237 446.677 503.603 446.053 504.703 444.983V465.068H492.402C493.531 463.939 494.185 462.543 494.185 460.998C494.155 457.373 490.412 454.432 485.807 454.432Z" fill="#FBC343"/>
<path d="M96.9771 202.125C96.9771 98.433 181.03 14.41 284.692 14.41C388.354 14.41 472.407 98.4627 472.407 202.125H96.9771Z" fill="white"/>
<g opacity="0.1">
<path d="M96.9771 187.715C96.9771 84.0528 181.03 6.10352e-05 284.722 6.10352e-05C388.414 6.10352e-05 472.437 84.0528 472.437 187.715H96.9771Z" fill="#FBC343"/>
</g>
<path d="M95.6104 463.494C67.8008 452.114 46.4682 428.613 37.852 399.823L66.9986 401.249C65.6616 399.793 64.9188 398.01 65.0377 396.109C65.2456 391.593 70.0886 388.176 75.7931 388.473C81.5273 388.74 85.984 392.633 85.776 397.119C85.6869 399.02 84.7658 400.714 83.31 402.051L98.5518 402.794L97.3336 427.602C96.0264 426.236 94.3922 425.374 92.5502 425.285C88.0638 425.077 84.1716 429.534 83.9042 435.268C83.6368 441.002 87.0536 445.815 91.54 446.023C93.3821 446.113 95.1053 445.429 96.5314 444.181L95.6104 463.494Z" fill="#FBC343"/>
<path d="M41.5064 422.046V464.979H130.313V422.046H41.5064ZM95.9669 434.792C95.9669 436.575 94.5111 438.031 92.7284 438.031H79.091C77.3083 438.031 75.8525 436.575 75.8525 434.792C75.8525 433.01 77.3083 431.554 79.091 431.554H92.7284C94.5111 431.554 95.9669 433.01 95.9669 434.792Z" fill="#E5ECFF"/>
<path d="M130.67 465.365H41.1202V421.69H130.67V465.365ZM41.863 464.622H129.927V422.433H41.863V464.622ZM92.7284 438.417H79.091C77.1004 438.417 75.4663 436.783 75.4663 434.792C75.4663 432.802 77.1004 431.168 79.091 431.168H92.7284C94.7191 431.168 96.3532 432.802 96.3532 434.792C96.3532 436.813 94.7191 438.417 92.7284 438.417ZM79.0613 431.94C77.4866 431.94 76.1793 433.218 76.1793 434.822C76.1793 436.397 77.4569 437.704 79.0613 437.704H92.6987C94.2734 437.704 95.5807 436.427 95.5807 434.822C95.5807 433.247 94.3031 431.94 92.6987 431.94H79.0613Z" fill="#708CD5"/>
<g opacity="0.2">
<path d="M130.313 465.009C130.313 465.009 67.5037 460.582 41.5065 422.076V465.009H130.313Z" fill="#1F3C88"/>
</g>
<path d="M494.69 61.0267C494.69 61.9775 494.631 62.8985 494.482 63.7899H384.581C384.581 53.4801 392.93 45.1016 403.239 45.1016C406.27 45.1016 409.122 45.8146 411.677 47.1219C414.054 39.5456 421.125 34.0787 429.474 34.0787C439.784 34.0787 446.38 38.6245 446.38 48.9343V49.1423C450.005 49.7068 453.273 51.2815 455.917 53.5989C457.611 45.0124 466.97 41.4768 476.002 42.3384C487.975 43.4674 494.69 50.717 494.69 61.0267Z" fill="white"/>
<path d="M494.958 64.3543H384.016V63.7898C384.016 53.1829 392.633 44.537 403.239 44.537C406.062 44.537 408.795 45.1312 411.351 46.3197C414.054 38.6245 421.274 33.4845 429.474 33.4845C434.911 33.4845 439.19 34.7323 442.161 37.1686C445.281 39.7535 446.885 43.616 446.944 48.6371C450.124 49.2016 453.065 50.5386 455.561 52.559C457.848 44.0319 467.623 40.9717 476.032 41.7442C488.035 42.8732 495.225 50.0633 495.225 60.9673C495.225 61.918 495.166 62.8985 495.017 63.8195L494.958 64.3543ZM385.145 63.2253H494.007C494.096 62.5122 494.155 61.7695 494.155 61.0267C494.155 50.7466 487.352 43.9725 475.972 42.9029C467.742 42.1304 458.146 45.1609 456.482 53.7177L456.303 54.6685L455.561 54.0149C452.946 51.6974 449.767 50.2118 446.32 49.677L445.845 49.6176V48.9342C445.845 37.1092 436.962 34.6135 429.474 34.6135C421.512 34.6135 414.589 39.6941 412.182 47.2704L411.974 47.8944L411.38 47.5972C408.825 46.29 406.092 45.6363 403.21 45.6363C393.464 45.666 385.442 53.4801 385.145 63.2253Z" fill="#8CBFBE"/>
<path d="M389.335 278.334C390.404 275.422 388.859 273.669 388.83 272.065C388.77 270.49 389.275 269.064 388.414 268.856C387.552 268.648 386.542 269.955 385.977 276.848L389.335 278.334Z" fill="#F9B384"/>
<path d="M390.285 281.127L389.156 285.613H382.174L377.896 276.046C377.272 274.887 375.608 270.252 375.757 269.302C376.024 267.489 378.252 271.976 378.371 272.065C377.985 270.698 376.648 266.39 377.242 265.439C377.985 264.28 380.243 269.302 380.808 270.817C380.51 269.42 378.876 264.102 379.679 263.33C380.629 262.409 382.858 268.262 383.184 270.104C383.095 268.737 382.442 264.043 383.363 264.132C384.64 264.28 386.839 272.51 386.839 272.51C386.839 272.51 389.127 275.957 390.285 281.127Z" fill="#F9B384"/>
<path d="M379.352 274.857C380.154 274.115 381.015 273.461 382.026 272.986C382.531 272.748 383.066 272.57 383.6 272.481C384.135 272.391 384.729 272.391 385.264 272.54L385.234 272.689C384.165 272.599 383.125 272.867 382.174 273.342C381.223 273.788 380.332 274.412 379.441 275.006L379.352 274.857Z" fill="#E28B6D"/>
<path d="M385.977 274.293C385.502 274.293 385.056 274.501 384.878 274.887C384.7 275.273 384.64 275.749 384.7 276.194C384.729 276.67 384.819 277.116 384.967 277.561C385.086 278.007 385.264 278.452 385.472 278.868L385.353 278.958C385.027 278.571 384.819 278.126 384.64 277.65C384.462 277.175 384.373 276.7 384.313 276.194C384.284 275.689 384.313 275.155 384.581 274.709C384.64 274.59 384.759 274.501 384.848 274.412C384.967 274.323 385.086 274.263 385.205 274.204C385.324 274.174 385.472 274.144 385.591 274.115H385.977V274.293Z" fill="#E28B6D"/>
<path d="M415.272 457.076L415.956 448.43H404.339L402.734 452.055C402.051 453.6 401.13 454.966 400.031 456.214C403.447 458.056 408.795 460.017 415.272 457.076Z" fill="#F9B384"/>
<path d="M400.001 456.244C398.397 458.027 396.376 459.423 394.088 460.314L388.889 462.305C387.493 463.196 388.117 465.365 389.78 465.365H410.816C412.985 465.365 414.767 463.701 414.946 461.562L415.302 457.135C408.795 460.017 403.447 458.056 400.001 456.244Z" fill="#102048"/>
<path d="M443.736 457.076L443.052 448.43H454.669L456.274 452.055C456.957 453.6 457.878 454.966 458.977 456.214C455.561 458.056 450.183 460.017 443.736 457.076Z" fill="#F9B384"/>
<path d="M459.007 456.244C460.612 458.027 462.632 459.423 464.92 460.314L470.119 462.305C471.516 463.196 470.892 465.365 469.228 465.365H448.192C446.023 465.365 444.241 463.701 444.062 461.562L443.706 457.135C450.183 460.017 455.561 458.056 459.007 456.244Z" fill="#102048"/>
<path d="M457.581 450.094H437.585L426.711 365.981L421.066 404.19L419.907 450.064H401.13C399.644 414.44 401.516 376.172 407.666 334.488L408.082 327.862L408.558 320.315L446.321 323.079L446.766 328.219L447.658 338.023L457.581 450.094Z" fill="#1F3C88"/>
<g opacity="0.6">
<path d="M447.658 338.083C444.092 343.46 419.313 343.282 407.518 336.686L408.082 327.892L446.766 328.248L447.658 338.083Z" fill="#102048"/>
</g>
<path d="M406.626 322.574C406.626 322.574 402.883 332.259 406.092 334.101C409.3 335.944 446.32 336.33 449.232 334.101C452.174 331.873 445.073 326.317 445.756 322.574C446.439 318.889 406.626 322.574 406.626 322.574Z" fill="#708CD5"/>
<path d="M403.447 282.79C402.14 285.672 397.327 294.407 397.327 294.407L390.256 281.127C388.681 282.404 386.809 283.593 381.283 283.682C381.283 283.682 389.216 313.066 396.376 316.097C408.112 321.058 410.875 298.864 410.875 298.864L403.447 282.79Z" fill="#708CD5"/>
<path d="M403.447 282.79L405.349 278.304C406.121 276.521 407.429 275.006 409.182 274.204C409.36 274.115 409.508 274.055 409.687 273.996C413.014 272.748 419.165 270.757 424.869 270.817C426.919 270.817 434.525 270.728 446.855 273.877L450.302 317.968L409.449 317.136L403.447 282.79Z" fill="#708CD5"/>
<g opacity="0.3">
<path d="M439.933 282.79C440.883 299.369 439.546 317.166 429.89 318.325L441.032 321.474L453.006 315.057L448.282 288.97L439.933 282.79Z" fill="#1F3C88"/>
</g>
<path d="M441.745 272.689C444.211 273.223 448.311 273.788 450.361 275.184C452.411 276.581 458.146 306.381 459.631 313.244C461.117 320.108 461.473 327.179 431.049 328.278L428.078 319.929L445.905 313.066L439.071 282.79L441.745 272.689Z" fill="#708CD5"/>
<path d="M408.914 285.078C409.122 288.049 409.241 291.05 409.33 294.021L409.419 298.508C409.419 299.993 409.449 301.508 409.419 302.994H409.211C409.093 301.508 409.033 300.023 408.944 298.508L408.795 294.021C408.736 291.02 408.677 288.049 408.706 285.048L408.914 285.078Z" fill="#1F3C88"/>
<path d="M442.874 315.859V317.552L434.377 325.248L433.693 322.069L442.874 315.859Z" fill="#102048"/>
<path d="M433.129 324.119L442.874 315.859L424.542 313.541L433.129 324.119Z" fill="white"/>
<path d="M434.377 325.248H399.11L393.197 297.171H428.464L434.377 325.248Z" fill="#102048"/>
<path d="M415.748 313.185H411.826L411.083 309.233H415.005L415.748 313.185Z" fill="white"/>
<path d="M412.598 242.175C408.647 232.133 425.166 228.419 426.771 236.827C426.771 236.827 431.495 234.361 436.189 236.976C445.221 241.997 439.398 256.08 436.189 256.08L419.878 253.941L412.598 242.175Z" fill="#6F3428"/>
<path d="M433.248 261.19V271.47C433.248 274.293 430.544 276.581 427.187 276.581C423.859 276.581 421.126 274.293 421.126 271.47V261.19H433.248Z" fill="#F9B384"/>
<path d="M430.633 265.053C429.088 267.103 425.76 269.48 421.126 269.539V264.132L430.633 265.053Z" fill="#3C1C16"/>
<path d="M433.248 244.582V262.171C433.248 262.171 429.801 268.024 422.73 267.549C419.224 267.311 417.441 265.112 416.55 261.606C416.193 260.269 415.956 258.754 415.777 257.061C415.51 254.238 415.421 250.97 415.332 247.464V244.582H433.248Z" fill="#F9B384"/>
<path d="M415.48 240.333C413.311 238.432 408.885 239.888 407.577 242.562C405.735 246.335 408.142 250.138 411.232 251.207C415.718 252.723 417.56 247.999 417.56 247.999C417.56 247.999 419.016 250.049 422.254 249.603C424.572 249.276 425.374 246.988 425.374 246.988C425.374 246.988 426.087 252.842 433.753 252.693C435.387 252.129 436.159 245.741 436.159 245.741L431.108 240.482L415.48 240.333Z" fill="#6F3428"/>
<path d="M431.049 328.278C427.276 329.051 423.324 329.496 419.491 328.932C417.115 328.575 414.767 327.743 412.836 326.258C411.261 325.04 409.865 323.287 409.003 321.474C408.795 321.029 408.647 320.405 409.003 319.989C409.39 319.543 410.132 320.286 410.519 320.583C412.39 321.979 413.757 324.059 413.757 324.059C413.757 324.059 410.875 319.305 411.588 318.563C412.153 317.968 412.985 318.117 415.896 322.96C415.896 322.96 416.431 324.148 416.966 323.524C417.263 323.198 415.302 319.454 416.728 319.127C417.798 318.889 418.838 322.425 419.581 323.792C420.502 324.861 422.106 323.792 422.106 323.792L429.95 325.277L431.049 328.278Z" fill="#F9B384"/>
<path d="M421.928 324.029C421.809 323.227 421.571 322.425 421.274 321.682C421.215 321.504 421.125 321.355 421.096 321.147C420.977 320.464 421.601 320.256 421.987 320.405C422.878 320.731 423.681 321.92 424.215 322.841C424.691 323.643 424.958 324.683 424.81 325.693C424.78 325.99 422.225 325.99 422.076 325.634C422.046 325.545 422.046 325.456 422.017 325.337C422.046 324.891 421.987 324.445 421.928 324.029Z" fill="#F9B384"/>
<path d="M425.018 351.958C425.493 355.018 425.968 358.078 426.384 361.139L427.632 370.319L428.791 379.53L429.326 384.135L429.801 388.74L429.504 388.77L428.791 384.194L428.137 379.619L426.889 370.438L425.731 361.228C425.374 358.168 425.018 355.078 424.691 352.017L425.018 351.958Z" fill="#708CD5"/>
<path d="M420.234 278.869C422.195 280.651 424.81 281.632 427.395 281.453C428.702 281.394 429.95 281.037 431.108 280.414C432.267 279.819 433.307 279.017 434.287 278.096L434.436 278.245C433.574 279.285 432.535 280.176 431.346 280.859C430.158 281.513 428.791 281.929 427.424 282.018C426.058 282.077 424.661 281.869 423.384 281.335C422.106 280.83 420.947 280.027 420.056 279.017L420.234 278.869Z" fill="#1F3C88"/>
<path d="M432.386 253.555C433.188 251.564 434.733 251.029 436.248 251.712C438.625 252.842 437.853 259.021 432.386 259.14V253.555Z" fill="#F9B384"/>
<path d="M433.604 254.654C433.485 254.06 433.664 253.466 434.08 252.99C434.288 252.752 434.644 252.574 435.001 252.604C435.357 252.634 435.625 252.812 435.803 253.05L435.684 253.228C435.446 253.139 435.209 253.079 435.001 253.109C434.793 253.139 434.644 253.228 434.466 253.376C434.288 253.525 434.198 253.733 434.08 253.971C433.961 254.179 433.872 254.416 433.812 254.684H433.604V254.654Z" fill="#6F3428"/>
<path d="M419.551 254.565C419.551 255.248 419.164 255.813 418.689 255.813C418.214 255.813 417.828 255.248 417.828 254.565C417.828 253.881 418.214 253.317 418.689 253.317C419.164 253.317 419.551 253.881 419.551 254.565Z" fill="#3C1C16"/>
<path d="M426.83 254.565C426.83 255.248 426.444 255.813 425.968 255.813C425.493 255.813 425.107 255.248 425.107 254.565C425.107 253.881 425.493 253.317 425.968 253.317C426.444 253.317 426.83 253.881 426.83 254.565Z" fill="#3C1C16"/>
<path d="M422.017 255.07C422.106 255.337 422.165 255.605 422.195 255.872C422.225 256.021 422.225 256.14 422.225 256.288C422.225 256.407 422.255 256.585 422.136 256.793C421.928 257.15 421.571 257.209 421.393 257.328C421.215 257.417 421.066 257.595 420.977 257.774C420.799 258.13 420.888 258.606 421.215 258.873C421.541 259.17 422.047 259.2 422.552 259.14L422.611 259.348C422.106 259.527 421.482 259.616 420.918 259.23C420.383 258.843 420.175 258.071 420.502 257.477C420.65 257.179 420.888 256.942 421.185 256.823C421.452 256.704 421.69 256.615 421.749 256.526C421.839 256.437 421.809 256.11 421.839 255.872C421.839 255.605 421.839 255.367 421.809 255.1L422.017 255.07Z" fill="#E28B6D"/>
<path d="M420.056 261.993C420.502 262.141 420.947 262.201 421.393 262.23C421.839 262.26 422.314 262.26 422.76 262.201C423.205 262.141 423.651 262.052 424.067 261.903C424.483 261.755 424.899 261.517 425.285 261.28L425.434 261.428C425.137 261.814 424.721 262.111 424.275 262.349C423.829 262.557 423.324 262.706 422.849 262.765C422.344 262.795 421.839 262.795 421.363 262.706C420.888 262.617 420.383 262.468 419.967 262.201L420.056 261.993Z" fill="#3C1C16"/>
<path d="M416.639 252.723C416.847 252.396 417.085 252.069 417.412 251.831C417.738 251.594 418.154 251.445 418.6 251.475C419.016 251.505 419.402 251.653 419.759 251.861C420.115 252.069 420.383 252.336 420.65 252.634L420.561 252.752C420.234 252.544 419.937 252.336 419.61 252.158C419.283 251.98 418.927 251.861 418.6 251.861C417.887 251.802 417.263 252.277 416.758 252.842L416.639 252.723Z" fill="#3C1C16"/>
<path d="M423.948 252.723C424.186 252.336 424.483 252.039 424.899 251.802C425.285 251.594 425.76 251.475 426.206 251.505C427.127 251.564 427.929 252.069 428.494 252.693L428.405 252.812C427.721 252.336 426.979 251.92 426.176 251.891C425.374 251.831 424.602 252.188 424.067 252.812L423.948 252.723Z" fill="#3C1C16"/>
<g opacity="0.4">
<path d="M428.524 261.28C429.803 261.28 430.841 260.242 430.841 258.962C430.841 257.682 429.803 256.645 428.524 256.645C427.244 256.645 426.206 257.682 426.206 258.962C426.206 260.242 427.244 261.28 428.524 261.28Z" fill="#EE6F57"/>
</g>
<g opacity="0.4">
<path d="M418.659 259.319C418.659 260.537 417.709 261.517 416.52 261.606C416.164 260.269 415.926 258.754 415.748 257.061C415.926 257.001 416.104 256.971 416.312 256.971C417.62 257.001 418.659 258.041 418.659 259.319Z" fill="#EE6F57"/>
</g>
<path d="M491.075 244.695H461.364C453.877 244.695 447.816 238.634 447.816 231.147V226.868C447.816 219.381 453.877 213.32 461.364 213.32H491.075C498.563 213.32 504.624 219.381 504.624 226.868V231.147C504.624 238.634 498.563 244.695 491.075 244.695Z" fill="#C6EAE9"/>
<path d="M456.462 233.108L442.765 244.695H470.159L456.462 233.108Z" fill="#C6EAE9"/>
<path d="M465.999 231.949C467.607 231.949 468.911 230.645 468.911 229.037C468.911 227.429 467.607 226.126 465.999 226.126C464.391 226.126 463.087 227.429 463.087 229.037C463.087 230.645 464.391 231.949 465.999 231.949Z" fill="white"/>
<path d="M476.22 231.949C477.828 231.949 479.132 230.645 479.132 229.037C479.132 227.429 477.828 226.126 476.22 226.126C474.612 226.126 473.308 227.429 473.308 229.037C473.308 230.645 474.612 231.949 476.22 231.949Z" fill="white"/>
<path d="M486.441 231.949C488.049 231.949 489.352 230.645 489.352 229.037C489.352 227.429 488.049 226.126 486.441 226.126C484.832 226.126 483.529 227.429 483.529 229.037C483.529 230.645 484.832 231.949 486.441 231.949Z" fill="white"/>
<path d="M118.191 290.218C116.705 292.09 111.981 307.896 111.981 307.896C111.981 307.896 116.943 310.986 124.579 310.184C124.282 310.154 118.191 290.218 118.191 290.218Z" fill="#EE6F57"/>
<path d="M133.284 458.235L133.878 450.777H123.836L122.44 453.927C121.845 455.264 121.043 456.452 120.092 457.492C123.063 459.067 127.698 460.79 133.284 458.235Z" fill="#F9B384"/>
<path d="M120.092 457.521C118.696 459.066 116.973 460.255 114.982 461.027L110.496 462.751C109.278 463.523 109.842 465.395 111.268 465.395H129.422C131.293 465.395 132.838 463.969 132.987 462.097L133.284 458.264C127.698 460.79 123.063 459.066 120.092 457.521Z" fill="#102048"/>
<path d="M163.055 458.235L162.46 450.777H172.503L173.899 453.926C174.493 455.263 175.296 456.452 176.246 457.492C173.246 459.067 168.64 460.79 163.055 458.235Z" fill="#F9B384"/>
<path d="M176.217 457.521C177.613 459.066 179.336 460.255 181.327 461.027L185.813 462.751C187.032 463.523 186.467 465.395 185.041 465.395H166.887C165.016 465.395 163.471 463.969 163.322 462.097L163.025 458.264C168.64 460.79 173.246 459.066 176.217 457.521Z" fill="#102048"/>
<path d="M176.841 453.719H156.518L141.752 365.001L137.117 453.719H118.547L119.647 362.624C117.745 354.157 118.369 347.62 121.013 340.757C121.667 339.004 122.469 337.251 123.39 335.409C124.014 334.191 124.668 332.943 125.411 331.636H157.915L158.479 335.409L158.806 337.489L176.841 453.719Z" fill="#708CD5"/>
<path d="M157.796 274.145L148.199 286.207L158.806 290.812L165.818 276.581L162.698 273.729L157.796 274.145Z" fill="#F9B384"/>
<path d="M142.554 288.079H131.501L132.244 273.075H143.297L142.554 288.079Z" fill="#F9B384"/>
<path d="M147.961 261.28C150.368 264.37 151.646 265.944 151.527 266.628C151.408 267.311 150.546 268.767 147.605 268.291C147.724 267.757 147.961 261.28 147.961 261.28Z" fill="#E28B6D"/>
<path d="M148.585 270.074C148.169 272.659 147.04 274.531 144.485 274.798C138.008 275.452 131.828 272.748 131.828 272.748L130.64 258.576L136.374 254.476L147.932 256.199C148.051 258.754 148.526 261.904 148.704 264.904C148.823 266.746 148.823 268.559 148.585 270.074Z" fill="#F9B384"/>
<path d="M143.267 258.101C146.09 260.745 149.447 260.982 151.556 259.17C155.983 255.397 153.072 246.246 143.267 249.663C143.267 249.663 132.452 244.73 126.183 251.237C119.914 257.714 124.668 264.696 116.943 274.917C116.943 274.917 131.739 284.692 149.15 275.452C146.357 270.46 140.89 274.412 140.742 266.033C140.652 265.885 139.85 258.903 143.267 258.101Z" fill="#102048"/>
<g opacity="0.3">
<path d="M160.173 335.379C160.054 336.033 159.578 336.746 158.806 337.459C153.874 341.945 136.641 346.343 121.013 340.727C121.667 338.974 122.469 337.221 123.39 335.379H160.173Z" fill="#1F3C88"/>
</g>
<path d="M158.836 337.608C156.578 338.618 132.66 343.669 121.311 337.102C120.449 336.36 118.221 335.647 121.37 331.606C124.519 327.565 119.558 306.084 118.191 290.218C122.35 286.178 128.025 283.296 133.344 282.256C137.86 281.364 142.703 281.751 146.684 282.256C150.635 282.761 157.202 285.405 157.202 285.405L156.697 303.44C156.697 303.44 156.548 304.301 156.34 305.698C156.013 308.134 155.538 312.294 155.508 316.572C155.478 321.742 156.102 327.09 158.42 329.883C162.46 334.755 161.094 336.597 158.836 337.608Z" fill="#EE6F57"/>
<path d="M169.086 296.666L166.353 312.056C166.323 312.056 166.323 312.026 166.293 312.026L162.847 309.857L162.758 309.798C162.698 309.768 162.639 309.709 162.609 309.679L149.298 301.271L143.624 281.959C149.12 282.79 155.122 283.177 158.865 286.593C161.599 289.03 166.026 293.546 169.086 296.666Z" fill="#EE6F57"/>
<path d="M186.437 277.264C186.437 277.264 182.07 306.589 181.327 309.501C181.208 309.917 181.089 310.303 180.97 310.719C180.049 313.304 178.237 315.829 174.642 315.562C173.84 315.502 172.859 315.235 171.819 314.849C170.037 314.165 168.046 313.096 166.353 312.086L169.086 296.695C170.274 297.884 171.225 298.864 171.819 299.458L176.573 275.868L186.437 277.264Z" fill="#F9B384"/>
<path d="M176.573 278.066C176.128 275.155 176.692 272.005 177.346 268.44L187.477 268.529C186.17 271.589 188.577 274.65 186.437 277.234L181.773 282.256L176.573 278.066Z" fill="#F9B384"/>
<path d="M165.818 276.581C168.314 274.887 171.106 268.589 171.106 268.589C169.175 268.499 162.134 268.321 159.43 268.589C159.43 268.589 159.46 272.362 157.796 274.145C156.815 275.184 165.818 276.581 165.818 276.581Z" fill="#F9B384"/>
<path d="M142.346 265.617C142.079 264.102 141.217 263.241 139.731 262.795C138.781 262.498 137.444 262.973 137.087 264.072C136.493 266.033 137.414 270.936 141.871 268.737C142.376 268.499 142.673 267.489 142.346 265.617Z" fill="#F9B384"/>
<path d="M121.548 316.839C121.251 315.027 120.954 313.215 120.687 311.373L119.914 305.906L119.201 300.439C118.963 298.597 118.785 296.784 118.577 294.942L118.785 294.913C119.112 296.725 119.379 298.537 119.676 300.379L120.449 305.846L121.162 311.343C121.4 313.185 121.578 314.997 121.786 316.839H121.548Z" fill="#6F3428"/>
<g opacity="0.3">
<path d="M156.31 305.757C155.983 308.193 155.508 312.353 155.478 316.631C152.24 310.749 150.784 302.281 150.784 302.281C150.784 302.281 153.547 304.004 156.31 305.757Z" fill="#6F3428"/>
</g>
<path d="M157.172 285.554C156.518 285.613 155.924 285.702 155.33 285.94C154.765 286.178 154.201 286.475 153.725 286.891C153.25 287.277 152.804 287.723 152.388 288.228C151.972 288.703 151.616 289.238 151.259 289.773L151.051 289.683C151.259 289.06 151.616 288.465 152.002 287.93C152.388 287.396 152.864 286.891 153.369 286.475C153.904 286.059 154.498 285.732 155.152 285.524C155.805 285.316 156.488 285.286 157.172 285.375V285.554Z" fill="#6F3428"/>
<path d="M136.077 364.377C137.028 364.555 138.008 364.734 138.959 364.793C139.939 364.853 140.89 364.882 141.871 364.793C142.851 364.734 143.802 364.645 144.782 364.466C145.733 364.318 146.714 364.11 147.664 363.872L147.724 364.08C146.803 364.466 145.852 364.734 144.871 364.942C143.891 365.15 142.911 365.268 141.9 365.328C140.89 365.387 139.91 365.358 138.9 365.239C137.919 365.15 136.939 364.882 135.988 364.585L136.077 364.377Z" fill="#1F3C88"/>
<g opacity="0.4">
<path d="M148.585 270.074C148.437 270.104 148.259 270.134 148.08 270.134C146.595 270.134 145.436 268.945 145.436 267.489C145.436 266.033 146.624 264.845 148.08 264.845C148.288 264.845 148.496 264.875 148.704 264.934C148.823 266.746 148.823 268.559 148.585 270.074Z" fill="#EE6F57"/>
</g>
<path d="M139.939 265.261C139.702 264.875 139.405 264.488 139.108 264.399C138.959 264.37 138.81 264.399 138.632 264.488C138.454 264.578 138.276 264.726 138.097 264.875L137.949 264.756C138.038 264.518 138.186 264.31 138.394 264.102C138.602 263.924 138.929 263.805 139.256 263.894C139.553 264.013 139.791 264.221 139.91 264.459C140.058 264.696 140.118 264.934 140.147 265.201L139.939 265.261Z" fill="#6F3428"/>
<path d="M128.325 252.388C128.738 249.845 127.011 247.449 124.468 247.036C121.925 246.623 119.529 248.35 119.116 250.893C118.703 253.436 120.43 255.832 122.973 256.245C125.516 256.658 127.912 254.931 128.325 252.388Z" fill="#102048"/>
<g opacity="0.4">
<path d="M180.97 310.719C180.049 313.304 178.237 315.829 174.642 315.562C173.84 315.502 172.859 315.235 171.819 314.849C173.275 310.838 176.395 309.738 180.97 310.719Z" fill="#EE6F57"/>
</g>
<path d="M188.012 266.895C187.923 267.281 187.715 267.667 187.626 268.173C186.883 271.976 186.645 272.57 186.645 272.57L183.734 271.084C184.298 269.094 185.754 266.241 186.526 265.291C186.942 264.756 187.21 264.429 187.655 264.875C188.012 265.201 188.19 265.855 188.012 266.895Z" fill="#F9B384"/>
<path d="M188.012 266.895C186.794 266.568 187.418 266.004 187.655 264.875C188.012 265.201 188.19 265.855 188.012 266.895Z" fill="#E28B6D"/>
<path d="M161.302 264.934C161.242 265.32 161.302 265.766 161.242 266.271C160.648 270.104 160.678 270.728 160.678 270.728L163.916 270.312C164.065 268.232 163.649 265.083 163.263 263.924C163.055 263.3 162.906 262.884 162.342 263.122C161.866 263.3 161.45 263.864 161.302 264.934Z" fill="#F9B384"/>
<path d="M161.302 264.934C162.55 265.023 162.163 264.28 162.312 263.151C161.866 263.3 161.45 263.864 161.302 264.934Z" fill="#E28B6D"/>
<path d="M163.946 267.935C163.946 268.262 164.065 268.559 164.273 268.797C164.481 269.005 164.808 269.212 164.986 269.599C165.134 269.985 165.075 270.401 164.956 270.728C164.837 271.084 164.689 271.381 164.451 271.679L164.332 271.589C164.481 271.292 164.57 270.965 164.659 270.639C164.748 270.312 164.748 269.985 164.659 269.747C164.57 269.48 164.273 269.302 164.035 269.005C163.797 268.678 163.708 268.291 163.797 267.935H163.946Z" fill="#E28B6D"/>
<path d="M184.863 268.381C184.773 268.856 184.536 269.302 184.15 269.628C183.763 269.985 183.288 270.074 183.05 270.401C182.813 270.728 182.694 271.173 182.664 271.589C182.634 272.035 182.694 272.481 182.813 272.926L182.664 272.986C182.426 272.57 182.337 272.094 182.337 271.589C182.337 271.114 182.426 270.609 182.753 270.163C183.11 269.718 183.615 269.628 183.942 269.361C184.298 269.094 184.566 268.737 184.714 268.321L184.863 268.381Z" fill="#E28B6D"/>
<g opacity="0.3">
<path d="M121.489 331.546C122.113 332.319 123.034 332.824 123.955 333.24C124.906 333.656 125.886 334.012 126.867 334.25C127.877 334.547 128.887 334.755 129.897 334.933C130.907 335.112 131.947 335.231 132.987 335.231L133.017 335.528C131.947 335.736 130.878 335.706 129.808 335.587C128.738 335.468 127.698 335.26 126.659 334.963C125.648 334.666 124.608 334.31 123.658 333.804C122.707 333.299 121.756 332.675 121.192 331.695L121.489 331.546Z" fill="#6F3428"/>
</g>
<path d="M53.0344 275.006H82.7455C90.2327 275.006 96.2938 268.945 96.2938 261.458V257.18C96.2938 249.692 90.2327 243.631 82.7455 243.631H53.0344C45.5472 243.631 39.4861 249.692 39.4861 257.18V261.458C39.5158 268.945 45.5472 275.006 53.0344 275.006Z" fill="#D3DFFF"/>
<path d="M87.6479 263.389L101.345 275.006H73.951L87.6479 263.389Z" fill="#D3DFFF"/>
<path d="M78.7879 262.134C80.3529 261.765 81.322 260.197 80.9525 258.632C80.5829 257.067 79.0147 256.097 77.4497 256.467C75.8847 256.837 74.9156 258.405 75.2852 259.97C75.6547 261.535 77.2229 262.504 78.7879 262.134Z" fill="white"/>
<path d="M68.5681 262.136C70.1331 261.767 71.1022 260.199 70.7326 258.634C70.3631 257.069 68.7948 256.1 67.2299 256.469C65.6649 256.839 64.6958 258.407 65.0653 259.972C65.4348 261.537 67.0031 262.506 68.5681 262.136Z" fill="white"/>
<path d="M58.3482 262.139C59.9132 261.769 60.8823 260.201 60.5127 258.636C60.1432 257.071 58.5749 256.102 57.01 256.472C55.445 256.841 54.4759 258.409 54.8454 259.974C55.2149 261.539 56.7832 262.508 58.3482 262.139Z" fill="white"/>
<path d="M1.90735e-05 465.336L69.5835 465.068L139.137 464.89L278.274 464.771L417.412 464.89L486.995 465.068L556.549 465.336L486.995 465.603L417.412 465.752L278.274 465.9L139.137 465.752L69.5835 465.603L1.90735e-05 465.336Z" fill="#102048"/>
<path d="M209.116 318.338C213.159 342.839 234.203 360.789 258.873 360.789H297.9C322.571 360.789 343.615 342.839 347.657 318.338C349.916 304.696 353.691 291.443 358.833 278.818H198.029C203.142 291.443 206.887 304.696 209.116 318.338Z" fill="#EE6F57"/>
<path d="M327.268 406.983H228.924C221.11 406.983 214.752 400.595 214.752 392.811V378.817C214.752 371.003 221.14 364.645 228.924 364.645H327.268C335.082 364.645 341.44 371.032 341.44 378.817V392.84C341.47 400.625 335.082 406.983 327.268 406.983Z" fill="#708CD5"/>
<path d="M318.8 429.801H237.451C232.787 429.801 228.954 425.968 228.954 421.304V418.689C228.954 414.024 232.787 410.192 237.451 410.192H318.8C323.465 410.192 327.298 414.024 327.298 418.689V421.304C327.298 425.968 323.465 429.801 318.8 429.801Z" fill="#43527F"/>
<path d="M297.676 448.46H258.546C254.297 448.46 250.792 444.983 250.792 440.705C250.792 436.456 254.268 432.95 258.546 432.95H297.676C301.924 432.95 305.43 436.427 305.43 440.705C305.43 444.954 301.954 448.46 297.676 448.46Z" fill="#43527F"/>
<path d="M276.492 40.7637C222.536 41.5362 176.633 78.8237 160.232 129.927H396.376C379.738 77.5461 332.259 39.9318 276.492 40.7637Z" fill="#FBC343"/>
<path d="M402.734 171.701C402.734 157.083 400.506 143.059 396.376 129.927H160.232C156.132 142.821 153.874 156.578 153.815 170.869C153.725 183.793 155.419 196.301 158.598 208.126H397.951C401.07 196.539 402.734 184.328 402.734 171.701Z" fill="#43527F"/>
<path d="M397.951 208.097H158.598C162.817 222.269 169.68 235.401 178.653 246.899C186.408 256.823 192.855 267.608 197.906 278.958H358.673C363.813 267.489 370.349 256.615 378.163 246.513C387.017 235.104 393.762 222.12 397.951 208.097Z" fill="#43527F"/>
<path d="M257.66 63.1823V69.9753C257.66 71.4499 257.231 72.6004 256.374 73.4267C255.526 74.2424 254.355 74.6503 252.86 74.6503C251.374 74.6503 250.203 74.2424 249.345 73.4267C248.498 72.6004 248.075 71.4499 248.075 69.9753V63.1823H250.193V69.9753C250.193 70.8329 250.428 71.5179 250.898 72.0304C251.369 72.5324 252.023 72.7834 252.86 72.7834C253.707 72.7834 254.366 72.5324 254.836 72.0304C255.317 71.5179 255.558 70.8329 255.558 69.9753V63.1823H257.66ZM261.837 74.3993H259.766V63.1823H261.994L268.191 72.3755H267.375V63.1823H269.446V74.3993H267.218L261.037 65.206H261.837V74.3993ZM273.788 74.3993H271.67V63.1823H273.788V74.3993ZM286.203 75.1053L281.779 70.6028L282.987 69.4105L287.395 73.913L286.203 75.1053ZM281.685 74.6503C280.817 74.6503 280.017 74.5039 279.285 74.2111C278.563 73.9182 277.93 73.5103 277.386 72.9874C276.842 72.4644 276.424 71.8474 276.131 71.1362C275.838 70.4145 275.692 69.6301 275.692 68.783C275.692 67.9358 275.838 67.1566 276.131 66.4454C276.424 65.7342 276.842 65.1171 277.386 64.5942C277.93 64.0713 278.563 63.6634 279.285 63.3705C280.017 63.0777 280.817 62.9313 281.685 62.9313C282.553 62.9313 283.348 63.0777 284.069 63.3705C284.802 63.6634 285.44 64.0713 285.983 64.5942C286.527 65.1171 286.946 65.7342 287.238 66.4454C287.531 67.1566 287.678 67.9358 287.678 68.783C287.678 69.6092 287.526 70.3831 287.223 71.1048C286.93 71.816 286.512 72.4383 285.968 72.9717C285.424 73.4946 284.786 73.9078 284.054 74.2111C283.332 74.5039 282.542 74.6503 281.685 74.6503ZM281.685 72.7834C282.438 72.7834 283.097 72.6161 283.662 72.2814C284.226 71.9363 284.666 71.4656 284.979 70.8695C285.293 70.2629 285.45 69.5674 285.45 68.783C285.45 68.009 285.288 67.3239 284.964 66.7278C284.65 66.1316 284.211 65.661 283.646 65.3159C283.081 64.9707 282.427 64.7981 281.685 64.7981C280.953 64.7981 280.299 64.9707 279.724 65.3159C279.159 65.661 278.715 66.1316 278.39 66.7278C278.077 67.3239 277.92 68.009 277.92 68.783C277.92 69.5569 278.077 70.2472 278.39 70.8538C278.715 71.4499 279.159 71.9206 279.724 72.2657C280.299 72.6109 280.953 72.7834 281.685 72.7834ZM299.071 63.1823V69.9753C299.071 71.4499 298.643 72.6004 297.785 73.4267C296.938 74.2424 295.766 74.6503 294.271 74.6503C292.786 74.6503 291.614 74.2424 290.757 73.4267C289.909 72.6004 289.486 71.4499 289.486 69.9753V63.1823H291.604V69.9753C291.604 70.8329 291.839 71.5179 292.31 72.0304C292.78 72.5324 293.434 72.7834 294.271 72.7834C295.118 72.7834 295.777 72.5324 296.248 72.0304C296.729 71.5179 296.969 70.8329 296.969 69.9753V63.1823H299.071ZM309.084 74.3993H301.193V63.1823H309.084V64.9707H303.311V72.6109H309.084V74.3993ZM308.786 69.6144H303.154V67.826H308.786V69.6144Z" fill="white"/>
<path d="M245.188 154.927L246.616 153.499C246.888 153.844 247.217 154.142 247.604 154.393C247.991 154.644 248.409 154.838 248.859 154.974C249.309 155.11 249.769 155.178 250.24 155.178C250.752 155.178 251.191 155.115 251.557 154.99C251.934 154.864 252.222 154.686 252.42 154.456C252.629 154.216 252.734 153.938 252.734 153.625C252.734 153.206 252.53 152.872 252.122 152.621C251.725 152.359 251.008 152.15 249.973 151.993C248.958 151.847 248.132 151.632 247.494 151.35C246.867 151.068 246.401 150.712 246.098 150.283C245.805 149.854 245.659 149.347 245.659 148.761C245.659 148.082 245.847 147.48 246.223 146.957C246.61 146.434 247.139 146.026 247.808 145.734C248.477 145.441 249.241 145.294 250.098 145.294C251.102 145.294 251.997 145.483 252.781 145.859C253.565 146.236 254.23 146.743 254.773 147.381L253.362 148.793C252.964 148.28 252.488 147.872 251.934 147.569C251.39 147.266 250.783 147.114 250.114 147.114C249.434 147.114 248.88 147.255 248.451 147.538C248.022 147.81 247.808 148.176 247.808 148.636C247.808 148.876 247.892 149.086 248.059 149.263C248.226 149.441 248.503 149.593 248.89 149.718C249.288 149.833 249.821 149.943 250.491 150.048C251.505 150.205 252.331 150.435 252.969 150.738C253.618 151.031 254.099 151.407 254.413 151.868C254.726 152.328 254.883 152.877 254.883 153.515C254.883 154.226 254.685 154.843 254.287 155.366C253.89 155.889 253.341 156.297 252.64 156.59C251.939 156.872 251.129 157.013 250.208 157.013C249.131 157.013 248.169 156.825 247.322 156.449C246.474 156.062 245.763 155.554 245.188 154.927ZM264.676 156.762H256.785V145.545H264.676V147.334H258.903V154.974H264.676V156.762ZM264.378 151.977H258.746V150.189H264.378V151.977ZM273.919 156.762H266.498V145.545H268.616V154.927H273.919V156.762ZM282.958 156.762H275.537V145.545H277.655V154.927H282.958V156.762ZM286.694 156.762H284.576V145.545H286.694V156.762ZM290.983 156.762H288.912V145.545H291.139L297.336 154.739H296.52V145.545H298.591V156.762H296.364L290.182 147.569H290.983V156.762ZM311.563 156.762H309.601V155.225L309.79 155.303C309.434 155.847 308.948 156.271 308.331 156.574C307.714 156.867 307.018 157.013 306.244 157.013C305.428 157.013 304.67 156.872 303.969 156.59C303.269 156.307 302.657 155.905 302.134 155.382C301.611 154.859 301.203 154.237 300.91 153.515C300.628 152.793 300.487 152.004 300.487 151.146C300.487 150.299 300.633 149.52 300.926 148.808C301.229 148.097 301.648 147.48 302.181 146.957C302.725 146.434 303.363 146.026 304.095 145.734C304.827 145.441 305.627 145.294 306.495 145.294C307.478 145.294 308.378 145.488 309.194 145.875C310.009 146.262 310.668 146.769 311.17 147.396L309.774 148.808C309.408 148.306 308.943 147.909 308.378 147.616C307.824 147.313 307.196 147.161 306.495 147.161C305.763 147.161 305.109 147.334 304.534 147.679C303.969 148.024 303.525 148.495 303.201 149.091C302.876 149.687 302.714 150.372 302.714 151.146C302.714 151.93 302.876 152.626 303.201 153.232C303.525 153.839 303.975 154.315 304.55 154.66C305.125 155.005 305.784 155.178 306.527 155.178C307.259 155.178 307.912 155.021 308.488 154.707C309.063 154.393 309.481 153.944 309.743 153.358L309.586 153.97V152.338H306.354V150.628H311.563V156.762Z" fill="white"/>
<path d="M225.186 303.055H223.068V291.838H227.617C228.423 291.838 229.123 291.984 229.719 292.277C230.326 292.559 230.797 292.957 231.131 293.469C231.477 293.982 231.649 294.578 231.649 295.258C231.649 295.937 231.477 296.539 231.131 297.062C230.797 297.574 230.326 297.977 229.719 298.27C229.123 298.552 228.423 298.693 227.617 298.693H225.029V296.905H227.617C228.203 296.905 228.663 296.758 228.998 296.466C229.332 296.173 229.5 295.77 229.5 295.258C229.5 294.756 229.332 294.358 228.998 294.065C228.663 293.773 228.203 293.626 227.617 293.626H225.186V303.055ZM235.496 303.055H233.378V291.838H237.928C238.733 291.838 239.434 291.984 240.03 292.277C240.637 292.559 241.107 292.957 241.442 293.469C241.787 293.982 241.96 294.578 241.96 295.258C241.96 295.937 241.787 296.539 241.442 297.062C241.107 297.574 240.637 297.977 240.03 298.27C239.434 298.552 238.733 298.693 237.928 298.693H235.339V296.905H237.928C238.514 296.905 238.974 296.758 239.308 296.466C239.643 296.173 239.81 295.77 239.81 295.258C239.81 294.756 239.643 294.358 239.308 294.065C238.974 293.773 238.514 293.626 237.928 293.626H235.496V303.055ZM243.105 303.055H240.516L236.547 297.831H238.979L243.105 303.055ZM249.337 303.306C248.469 303.306 247.669 303.159 246.937 302.866C246.215 302.574 245.582 302.166 245.039 301.643C244.495 301.12 244.076 300.503 243.784 299.792C243.491 299.07 243.344 298.285 243.344 297.438C243.344 296.591 243.491 295.812 243.784 295.101C244.076 294.39 244.495 293.773 245.039 293.25C245.582 292.727 246.215 292.319 246.937 292.026C247.669 291.733 248.469 291.587 249.337 291.587C250.205 291.587 251 291.733 251.722 292.026C252.454 292.319 253.092 292.727 253.636 293.25C254.18 293.773 254.598 294.39 254.891 295.101C255.184 295.812 255.33 296.591 255.33 297.438C255.33 298.285 255.184 299.07 254.891 299.792C254.598 300.503 254.18 301.12 253.636 301.643C253.092 302.166 252.454 302.574 251.722 302.866C251 303.159 250.205 303.306 249.337 303.306ZM249.337 301.439C250.08 301.439 250.733 301.266 251.298 300.921C251.863 300.576 252.302 300.105 252.616 299.509C252.94 298.903 253.102 298.212 253.102 297.438C253.102 296.664 252.94 295.979 252.616 295.383C252.302 294.787 251.863 294.316 251.298 293.971C250.733 293.626 250.08 293.454 249.337 293.454C248.605 293.454 247.951 293.626 247.376 293.971C246.811 294.316 246.367 294.787 246.043 295.383C245.729 295.979 245.572 296.664 245.572 297.438C245.572 298.212 245.729 298.903 246.043 299.509C246.367 300.105 246.811 300.576 247.376 300.921C247.951 301.266 248.605 301.439 249.337 301.439ZM259.35 303.055H257.232V291.838H261.782C262.587 291.838 263.288 291.984 263.884 292.277C264.491 292.559 264.961 292.957 265.296 293.469C265.641 293.982 265.814 294.578 265.814 295.258C265.814 295.937 265.641 296.539 265.296 297.062C264.961 297.574 264.491 297.977 263.884 298.27C263.288 298.552 262.587 298.693 261.782 298.693H259.193V296.905H261.782C262.368 296.905 262.828 296.758 263.162 296.466C263.497 296.173 263.665 295.77 263.665 295.258C263.665 294.756 263.497 294.358 263.162 294.065C262.828 293.773 262.368 293.626 261.782 293.626H259.35V303.055ZM273.206 303.306C272.338 303.306 271.538 303.159 270.806 302.866C270.085 302.574 269.452 302.166 268.908 301.643C268.364 301.12 267.946 300.503 267.653 299.792C267.36 299.07 267.214 298.285 267.214 297.438C267.214 296.591 267.36 295.812 267.653 295.101C267.946 294.39 268.364 293.773 268.908 293.25C269.452 292.727 270.085 292.319 270.806 292.026C271.538 291.733 272.338 291.587 273.206 291.587C274.075 291.587 274.869 291.733 275.591 292.026C276.323 292.319 276.961 292.727 277.505 293.25C278.049 293.773 278.467 294.39 278.76 295.101C279.053 295.812 279.199 296.591 279.199 297.438C279.199 298.285 279.053 299.07 278.76 299.792C278.467 300.503 278.049 301.12 277.505 301.643C276.961 302.166 276.323 302.574 275.591 302.866C274.869 303.159 274.075 303.306 273.206 303.306ZM273.206 301.439C273.949 301.439 274.603 301.266 275.168 300.921C275.732 300.576 276.172 300.105 276.485 299.509C276.81 298.903 276.972 298.212 276.972 297.438C276.972 296.664 276.81 295.979 276.485 295.383C276.172 294.787 275.732 294.316 275.168 293.971C274.603 293.626 273.949 293.454 273.206 293.454C272.474 293.454 271.821 293.626 271.245 293.971C270.681 294.316 270.236 294.787 269.912 295.383C269.598 295.979 269.441 296.664 269.441 297.438C269.441 298.212 269.598 298.903 269.912 299.509C270.236 300.105 270.681 300.576 271.245 300.921C271.821 301.266 272.474 301.439 273.206 301.439ZM280.091 301.219L281.519 299.792C281.791 300.137 282.12 300.435 282.507 300.686C282.894 300.937 283.312 301.13 283.762 301.266C284.212 301.402 284.672 301.47 285.143 301.47C285.655 301.47 286.094 301.407 286.461 301.282C286.837 301.156 287.125 300.979 287.323 300.749C287.533 300.508 287.637 300.231 287.637 299.917C287.637 299.499 287.433 299.164 287.025 298.913C286.628 298.652 285.911 298.442 284.876 298.285C283.862 298.139 283.035 297.925 282.397 297.642C281.77 297.36 281.304 297.004 281.001 296.575C280.708 296.147 280.562 295.639 280.562 295.054C280.562 294.374 280.75 293.773 281.127 293.25C281.514 292.727 282.042 292.319 282.711 292.026C283.38 291.733 284.144 291.587 285.002 291.587C286.006 291.587 286.9 291.775 287.684 292.151C288.469 292.528 289.133 293.035 289.677 293.673L288.265 295.085C287.867 294.573 287.391 294.165 286.837 293.861C286.293 293.558 285.687 293.406 285.017 293.406C284.337 293.406 283.783 293.548 283.354 293.83C282.925 294.102 282.711 294.468 282.711 294.928C282.711 295.169 282.795 295.378 282.962 295.556C283.129 295.734 283.407 295.885 283.794 296.011C284.191 296.126 284.724 296.236 285.394 296.34C286.408 296.497 287.235 296.727 287.872 297.03C288.521 297.323 289.002 297.7 289.316 298.16C289.63 298.62 289.786 299.169 289.786 299.807C289.786 300.518 289.588 301.135 289.19 301.658C288.793 302.181 288.244 302.589 287.543 302.882C286.842 303.165 286.032 303.306 285.111 303.306C284.034 303.306 283.072 303.117 282.225 302.741C281.378 302.354 280.666 301.847 280.091 301.219ZM293.806 303.055H291.688V291.838H293.806V303.055ZM301.059 303.055H298.941V293.485H301.059V303.055ZM304.574 293.642H295.427V291.838H304.574V293.642ZM308.33 303.055H306.212V291.838H308.33V303.055ZM316.226 303.306C315.358 303.306 314.558 303.159 313.826 302.866C313.104 302.574 312.472 302.166 311.928 301.643C311.384 301.12 310.966 300.503 310.673 299.792C310.38 299.07 310.234 298.285 310.234 297.438C310.234 296.591 310.38 295.812 310.673 295.101C310.966 294.39 311.384 293.773 311.928 293.25C312.472 292.727 313.104 292.319 313.826 292.026C314.558 291.733 315.358 291.587 316.226 291.587C317.095 291.587 317.889 291.733 318.611 292.026C319.343 292.319 319.981 292.727 320.525 293.25C321.069 293.773 321.487 294.39 321.78 295.101C322.073 295.812 322.219 296.591 322.219 297.438C322.219 298.285 322.073 299.07 321.78 299.792C321.487 300.503 321.069 301.12 320.525 301.643C319.981 302.166 319.343 302.574 318.611 302.866C317.889 303.159 317.095 303.306 316.226 303.306ZM316.226 301.439C316.969 301.439 317.623 301.266 318.187 300.921C318.752 300.576 319.192 300.105 319.505 299.509C319.829 298.903 319.992 298.212 319.992 297.438C319.992 296.664 319.829 295.979 319.505 295.383C319.192 294.787 318.752 294.316 318.187 293.971C317.623 293.626 316.969 293.454 316.226 293.454C315.494 293.454 314.841 293.626 314.265 293.971C313.701 294.316 313.256 294.787 312.932 295.383C312.618 295.979 312.461 296.664 312.461 297.438C312.461 298.212 312.618 298.903 312.932 299.509C313.256 300.105 313.701 300.576 314.265 300.921C314.841 301.266 315.494 301.439 316.226 301.439ZM326.177 303.055H324.106V291.838H326.334L332.531 301.031H331.715V291.838H333.786V303.055H331.558L325.377 293.861H326.177V303.055Z" fill="white"/>
<g clip-path="url(#clip1_780_1509)">
<path d="M280.98 83.1083C281.394 83.1083 281.808 83.1083 282.231 83.1083C283.823 83.4486 284.633 84.4881 284.9 86.0428C285.111 87.303 285.111 88.5725 285.01 89.842C284.845 91.829 284.513 93.7976 284.099 95.7478C283.98 96.2997 283.989 96.3089 284.55 96.3089C287.062 96.3089 289.565 96.2905 292.077 96.3181C295.104 96.3457 296.944 99.4458 295.546 102.113C295.426 102.334 295.426 102.463 295.647 102.629C297.791 104.312 297.782 107.228 295.619 108.93C295.435 109.077 295.417 109.178 295.518 109.39C296.539 111.349 295.987 113.465 294.138 114.643C293.954 114.762 293.889 114.863 294 115.075C295.408 117.853 293.153 120.824 290.375 120.751C287.439 120.677 284.495 120.732 281.56 120.732C280.474 120.732 279.388 120.686 278.303 120.585C275.487 120.337 272.745 119.739 270.058 118.856C269.699 118.736 269.589 118.561 269.589 118.193C269.598 111.809 269.598 105.416 269.589 99.0318C269.589 98.7006 269.69 98.4615 269.966 98.2591C271.374 97.192 272.699 96.0329 273.895 94.7267C274.962 93.5492 275.855 92.2705 276.407 90.7527C277.024 89.0325 277.714 87.349 278.349 85.638C278.827 84.3869 279.646 83.4854 280.98 83.1083Z" fill="white"/>
<path d="M259.605 100.439C259.826 99.8597 260.25 99.5929 260.875 99.5929C262.918 99.6021 264.961 99.6021 267.003 99.5929C267.371 99.5929 267.491 99.7125 267.482 100.08C267.473 105.977 267.473 111.874 267.482 117.77C267.482 118.111 267.381 118.249 267.022 118.249C264.97 118.239 262.909 118.239 260.857 118.249C260.25 118.249 259.836 117.963 259.596 117.411C259.605 111.754 259.605 106.097 259.605 100.439Z" fill="white"/>
</g>
<g clip-path="url(#clip2_780_1509)">
<path d="M250.193 209.8C250.193 208.235 250.193 206.669 250.193 205.103C250.366 203.77 250.54 202.436 250.83 201.131C254.31 185.823 269.473 175.994 285.101 179.531C300.438 182.981 310.354 198.203 306.672 213.801C304.12 224.674 297.191 231.719 286.521 235.054C284.753 235.604 282.926 235.836 281.099 236.068C279.534 236.068 277.968 236.068 276.403 236.068C275.069 235.894 273.735 235.778 272.459 235.43C261.616 232.647 254.513 225.921 251.178 215.251C250.656 213.454 250.424 211.627 250.193 209.8ZM276.692 192.781C276.692 193.129 276.663 193.448 276.692 193.796C276.75 194.347 276.518 194.579 275.968 194.695C274.721 194.956 273.561 195.478 272.517 196.231C270.198 197.913 269.154 200.812 269.85 203.538C270.314 205.335 271.503 206.582 273.01 207.539C274.402 208.438 275.939 208.989 277.475 209.539C278.432 209.887 279.36 210.235 280.201 210.815C281.07 211.424 281.65 212.207 281.505 213.338C281.36 214.526 280.52 215.106 279.447 215.425C278.229 215.802 276.982 215.715 275.736 215.57C274.547 215.425 273.416 215.048 272.285 214.7C271.3 214.41 270.459 214.874 270.14 215.86C269.995 216.266 269.908 216.672 269.821 217.107C269.56 218.237 269.966 218.991 271.039 219.368C272.604 219.919 274.199 220.238 275.823 220.354C276.287 220.383 276.489 220.557 276.489 221.021C276.489 221.833 276.489 222.615 276.518 223.427C276.547 224.036 276.808 224.268 277.388 224.297C278.055 224.326 278.722 224.326 279.389 224.297C280.114 224.268 280.346 224.007 280.375 223.311C280.375 222.441 280.404 221.601 280.375 220.731C280.375 220.296 280.52 220.093 280.954 220.006C281.795 219.861 282.607 219.571 283.39 219.194C286.086 217.832 287.681 215.773 287.797 212.671C287.855 210.467 287.217 208.612 285.477 207.162C284.927 206.698 284.347 206.321 283.709 205.973C282.201 205.161 280.607 204.64 279.041 203.973C278.258 203.654 277.504 203.277 276.837 202.755C276.171 202.233 275.765 201.595 275.91 200.725C276.055 199.856 276.634 199.305 277.417 199.015C278.345 198.667 279.331 198.609 280.346 198.696C281.476 198.783 282.549 199.015 283.622 199.334C284.84 199.682 285.622 199.218 285.999 197.971C286.086 197.71 286.144 197.42 286.202 197.159C286.492 195.942 286.057 195.188 284.869 194.811C283.68 194.434 282.462 194.26 281.244 194.202C280.694 194.173 280.549 193.941 280.578 193.419C280.607 192.781 280.607 192.143 280.578 191.535C280.549 190.781 280.23 190.491 279.505 190.462C278.896 190.462 278.316 190.462 277.707 190.462C277.011 190.462 276.663 190.839 276.634 191.535C276.692 191.998 276.692 192.375 276.692 192.781Z" fill="white"/>
</g>
<g clip-path="url(#clip3_780_1509)">
<path d="M75.2692 353.682C75.2692 352.674 75.2692 351.666 75.2692 350.658C75.3812 349.8 75.4932 348.941 75.6799 348.101C77.9199 338.245 87.6827 331.917 97.7442 334.194C107.619 336.415 114.003 346.216 111.632 356.258C109.99 363.259 105.528 367.795 98.6589 369.941C97.5202 370.296 96.3442 370.445 95.1682 370.595C94.1602 370.595 93.1522 370.595 92.1441 370.595C91.2855 370.483 90.4268 370.408 89.6054 370.184C82.624 368.392 78.0506 364.061 75.9039 357.192C75.5679 356.034 75.4185 354.858 75.2692 353.682ZM92.3308 342.725C92.3308 342.949 92.3121 343.154 92.3308 343.378C92.3681 343.733 92.2188 343.882 91.8641 343.957C91.0615 344.125 90.3148 344.461 89.6428 344.946C88.1494 346.029 87.4774 347.896 87.9254 349.65C88.2241 350.808 88.9894 351.61 89.9601 352.226C90.8561 352.805 91.8455 353.16 92.8348 353.514C93.4508 353.738 94.0482 353.962 94.5895 354.336C95.1495 354.728 95.5229 355.232 95.4295 355.96C95.3362 356.725 94.7948 357.098 94.1042 357.304C93.3202 357.546 92.5175 357.49 91.7148 357.397C90.9495 357.304 90.2214 357.061 89.4934 356.837C88.8588 356.65 88.3174 356.949 88.1121 357.584C88.0187 357.845 87.9627 358.106 87.9067 358.386C87.7387 359.114 88.0001 359.6 88.6908 359.842C89.6988 360.197 90.7255 360.402 91.7708 360.477C92.0695 360.496 92.2001 360.608 92.2001 360.906C92.2001 361.429 92.2001 361.933 92.2188 362.456C92.2375 362.848 92.4055 362.997 92.7788 363.016C93.2082 363.035 93.6375 363.035 94.0668 363.016C94.5335 362.997 94.6828 362.829 94.7015 362.381C94.7015 361.821 94.7202 361.28 94.7015 360.72C94.7015 360.44 94.7948 360.309 95.0749 360.253C95.6162 360.16 96.1389 359.973 96.6429 359.73C98.3789 358.853 99.4056 357.528 99.4803 355.53C99.5176 354.112 99.1069 352.917 97.9869 351.984C97.6322 351.685 97.2589 351.442 96.8482 351.218C95.8775 350.696 94.8509 350.36 93.8428 349.93C93.3388 349.725 92.8535 349.482 92.4241 349.146C91.9948 348.81 91.7335 348.4 91.8268 347.84C91.9201 347.28 92.2935 346.925 92.7975 346.738C93.3948 346.514 94.0295 346.477 94.6828 346.533C95.4109 346.589 96.1015 346.738 96.7922 346.944C97.5762 347.168 98.0802 346.869 98.3229 346.066C98.3789 345.898 98.4162 345.712 98.4536 345.544C98.6402 344.76 98.3602 344.274 97.5949 344.032C96.8295 343.789 96.0455 343.677 95.2615 343.64C94.9069 343.621 94.8135 343.472 94.8322 343.136C94.8509 342.725 94.8509 342.314 94.8322 341.922C94.8135 341.437 94.6082 341.25 94.1415 341.231C93.7495 341.231 93.3762 341.231 92.9842 341.231C92.5361 341.231 92.3121 341.474 92.2935 341.922C92.3308 342.221 92.3308 342.464 92.3308 342.725Z" fill="#F1F1F1"/>
</g>
<g clip-path="url(#clip4_780_1509)">
<path d="M280.081 352.161C279.435 351.98 278.961 351.554 278.498 351.108C276.916 349.576 275.333 348.044 273.729 346.534C273.46 346.279 273.47 346.119 273.729 345.875C274.676 344.971 275.602 344.056 276.517 343.12C276.808 342.811 276.991 342.854 277.26 343.131C277.852 343.726 278.477 344.3 279.069 344.896C279.263 345.098 279.392 345.098 279.586 344.896C280.016 344.439 280.479 344.013 280.921 343.567C281.437 343.035 281.437 342.365 280.921 341.833C280.533 341.429 280.135 341.035 279.726 340.652C279.542 340.482 279.542 340.355 279.747 340.206C280.264 339.823 280.781 339.44 281.287 339.057C281.448 338.94 281.577 338.961 281.706 339.089C282.18 339.557 282.686 340.004 283.095 340.535C284.107 341.844 284.075 343.726 282.988 344.992C282.503 345.556 281.954 346.066 281.416 346.587C281.211 346.789 281.168 346.917 281.405 347.13C281.771 347.449 282.126 347.768 282.439 348.129C283.666 349.491 283.138 351.49 281.394 352.107C281.33 352.129 281.265 352.15 281.211 352.182C280.834 352.161 280.458 352.161 280.081 352.161Z" fill="white"/>
<path d="M275.01 318.04C275.107 318.125 275.204 318.21 275.301 318.306C277.842 320.816 280.393 323.337 282.934 325.847C285.184 328.07 287.434 330.293 289.684 332.516C289.781 332.611 289.975 332.707 289.932 332.856C289.889 333.037 289.663 332.994 289.512 333.026C285.27 333.877 281.545 335.76 278.229 338.472C277.928 338.717 277.755 338.727 277.475 338.451C274.773 335.76 272.049 333.079 269.326 330.399C269.089 330.165 269.056 330.006 269.283 329.74C272.071 326.411 273.944 322.635 274.806 318.38C274.838 318.253 274.827 318.104 275.01 318.04Z" fill="white"/>
<path d="M260.39 340.503C260.39 339.185 260.874 338.302 261.65 337.536C263.49 335.738 265.331 333.93 267.151 332.112C267.42 331.846 267.571 331.856 267.829 332.112C270.467 334.739 273.115 337.355 275.774 339.961C276.044 340.216 276.033 340.365 275.774 340.631C273.912 342.45 272.071 344.29 270.219 346.109C268.637 347.662 266.548 347.747 264.922 346.258C263.717 345.151 262.565 343.971 261.413 342.801C260.724 342.109 260.379 341.269 260.39 340.503ZM270.327 338.674C270.327 338.132 270.112 337.791 269.681 337.579C269.218 337.355 268.777 337.43 268.411 337.77C267.797 338.344 267.194 338.929 266.623 339.536C266.182 340.014 266.225 340.695 266.666 341.12C267.129 341.567 267.829 341.556 268.335 341.088C268.895 340.557 269.433 340.004 269.982 339.461C270.219 339.227 270.338 338.94 270.327 338.674Z" fill="white"/>
<path d="M277.842 311.69C278.423 311.69 278.95 311.86 279.403 312.243C279.553 312.371 279.704 312.509 279.844 312.648C285.033 317.774 290.222 322.911 295.422 328.038C296.004 328.612 296.434 329.25 296.38 330.101C296.327 331.09 295.853 331.814 294.938 332.229C294.023 332.643 293.161 332.505 292.365 331.899C292.257 331.814 292.171 331.718 292.074 331.622C286.788 326.389 281.513 321.167 276.216 315.945C275.473 315.211 275.193 314.371 275.505 313.371C275.818 312.36 276.754 311.69 277.842 311.69Z" fill="white"/>
<path d="M294.443 314.828C294.453 315.317 294.324 315.615 294.077 315.86C293.28 316.647 292.494 317.444 291.687 318.221C291.148 318.731 290.373 318.721 289.889 318.221C289.415 317.742 289.436 316.976 289.953 316.466C290.739 315.679 291.525 314.902 292.311 314.137C292.699 313.754 293.172 313.658 293.678 313.86C294.184 314.052 294.421 314.445 294.443 314.828Z" fill="white"/>
<path d="M287.197 313.828C287.197 314.222 287.208 314.626 287.197 315.019C287.176 315.658 286.691 316.157 286.067 316.2C285.399 316.243 284.818 315.838 284.742 315.19C284.624 314.254 284.624 313.318 284.742 312.382C284.829 311.733 285.399 311.329 286.067 311.371C286.691 311.414 287.176 311.914 287.197 312.552C287.208 312.977 287.197 313.403 287.197 313.828Z" fill="white"/>
<path d="M294.4 323.369C294.001 323.369 293.592 323.379 293.194 323.369C292.483 323.347 291.966 322.837 291.966 322.156C291.966 321.476 292.483 320.944 293.183 320.933C294.001 320.922 294.819 320.922 295.638 320.933C296.337 320.944 296.865 321.465 296.865 322.146C296.865 322.826 296.348 323.347 295.648 323.369C295.239 323.379 294.819 323.369 294.4 323.369Z" fill="white"/>
</g>
<g clip-path="url(#clip5_780_1509)">
<path d="M476.183 398.048C475.537 397.868 475.063 397.442 474.6 396.996C473.018 395.464 471.435 393.932 469.831 392.422C469.562 392.167 469.573 392.007 469.831 391.763C470.779 390.859 471.704 389.944 472.62 389.008C472.91 388.699 473.093 388.742 473.362 389.018C473.955 389.614 474.579 390.188 475.171 390.784C475.365 390.986 475.494 390.986 475.688 390.784C476.118 390.327 476.581 389.901 477.023 389.455C477.54 388.923 477.54 388.253 477.023 387.721C476.635 387.317 476.237 386.923 475.828 386.54C475.645 386.37 475.645 386.242 475.849 386.094C476.366 385.711 476.883 385.328 477.389 384.945C477.55 384.828 477.68 384.849 477.809 384.977C478.282 385.445 478.788 385.891 479.198 386.423C480.21 387.732 480.177 389.614 479.09 390.88C478.605 391.444 478.056 391.954 477.518 392.475C477.314 392.677 477.27 392.805 477.507 393.018C477.873 393.337 478.229 393.656 478.541 394.017C479.768 395.379 479.241 397.378 477.497 397.995C477.432 398.017 477.367 398.038 477.314 398.07C476.937 398.049 476.56 398.048 476.183 398.048Z" fill="#F1F1F1"/>
<path d="M471.112 363.928C471.209 364.013 471.306 364.098 471.403 364.194C473.944 366.704 476.495 369.225 479.036 371.735C481.286 373.958 483.536 376.181 485.786 378.404C485.883 378.499 486.077 378.595 486.034 378.744C485.991 378.925 485.765 378.882 485.614 378.914C481.372 379.765 477.647 381.648 474.331 384.36C474.03 384.605 473.858 384.615 473.578 384.339C470.875 381.648 468.152 378.967 465.428 376.287C465.191 376.053 465.159 375.894 465.385 375.628C468.173 372.299 470.046 368.523 470.908 364.268C470.94 364.141 470.929 363.992 471.112 363.928Z" fill="#F1F1F1"/>
<path d="M456.492 386.391C456.492 385.073 456.977 384.19 457.752 383.424C459.593 381.626 461.434 379.818 463.253 378C463.522 377.734 463.673 377.744 463.931 378C466.569 380.627 469.218 383.243 471.877 385.849C472.146 386.104 472.135 386.253 471.877 386.519C470.014 388.338 468.173 390.178 466.321 391.997C464.739 393.549 462.65 393.635 461.025 392.146C459.819 391.039 458.667 389.859 457.515 388.689C456.826 387.997 456.481 387.157 456.492 386.391ZM466.429 384.562C466.429 384.02 466.214 383.679 465.783 383.466C465.32 383.243 464.879 383.318 464.513 383.658C463.899 384.232 463.296 384.817 462.726 385.424C462.284 385.902 462.327 386.583 462.769 387.008C463.232 387.455 463.931 387.444 464.437 386.976C464.997 386.445 465.536 385.892 466.085 385.349C466.321 385.115 466.44 384.828 466.429 384.562Z" fill="#F1F1F1"/>
<path d="M473.944 357.578C474.525 357.578 475.053 357.748 475.505 358.131C475.656 358.259 475.806 358.397 475.946 358.536C481.135 363.662 486.325 368.799 491.525 373.926C492.106 374.5 492.537 375.138 492.483 375.989C492.429 376.978 491.955 377.702 491.04 378.117C490.125 378.531 489.264 378.393 488.467 377.787C488.359 377.702 488.273 377.606 488.176 377.51C482.89 372.277 477.615 367.055 472.318 361.833C471.575 361.099 471.295 360.259 471.608 359.259C471.92 358.248 472.856 357.578 473.944 357.578Z" fill="#F1F1F1"/>
<path d="M490.545 360.716C490.556 361.205 490.426 361.503 490.179 361.748C489.382 362.535 488.596 363.332 487.789 364.109C487.25 364.619 486.475 364.609 485.991 364.109C485.517 363.63 485.539 362.864 486.055 362.354C486.841 361.567 487.627 360.79 488.413 360.025C488.801 359.642 489.274 359.546 489.78 359.748C490.286 359.94 490.523 360.333 490.545 360.716Z" fill="#F1F1F1"/>
<path d="M483.299 359.716C483.299 360.11 483.31 360.514 483.299 360.907C483.278 361.546 482.793 362.045 482.169 362.088C481.501 362.131 480.92 361.726 480.845 361.078C480.726 360.142 480.726 359.206 480.845 358.27C480.931 357.621 481.501 357.217 482.169 357.259C482.793 357.302 483.278 357.802 483.299 358.44C483.31 358.865 483.299 359.291 483.299 359.716Z" fill="#F1F1F1"/>
<path d="M490.502 369.257C490.103 369.257 489.694 369.267 489.296 369.257C488.585 369.235 488.069 368.725 488.069 368.044C488.069 367.363 488.585 366.832 489.285 366.821C490.103 366.81 490.922 366.81 491.74 366.821C492.44 366.832 492.967 367.353 492.967 368.034C492.967 368.714 492.45 369.235 491.751 369.257C491.342 369.267 490.922 369.257 490.502 369.257Z" fill="#F1F1F1"/>
</g>
</g>
<defs>
<clipPath id="clip0_780_1509">
<rect width="556.549" height="465.9" fill="white"/>
</clipPath>
<clipPath id="clip1_780_1509">
<rect width="37.6517" height="37.6517" fill="white" transform="translate(259.605 83.1082)"/>
</clipPath>
<clipPath id="clip2_780_1509">
<rect width="57.2619" height="57.2619" fill="white" transform="translate(250.193 178.806)"/>
</clipPath>
<clipPath id="clip3_780_1509">
<rect width="36.8672" height="36.8672" fill="white" transform="translate(75.2692 333.727)"/>
</clipPath>
<clipPath id="clip4_780_1509">
<rect width="36.475" height="40.7893" fill="white" transform="translate(260.39 311.371)"/>
</clipPath>
<clipPath id="clip5_780_1509">
<rect width="36.475" height="40.7893" fill="white" transform="translate(456.492 357.259)"/>
</clipPath>
</defs>
</svg>
