<svg width="417" height="230" viewBox="0 0 417 230" fill="none" xmlns="http://www.w3.org/2000/svg">
<g clip-path="url(#clip0_767_717)">
<path opacity="0.8" d="M206.954 230C321.252 230 413.908 228.296 413.908 226.193C413.908 224.091 321.252 222.386 206.954 222.386C92.6565 222.386 0 224.091 0 226.193C0 228.296 92.6565 230 206.954 230Z" fill="#DBDAEA"/>
<path d="M179.697 212.425C179.697 212.425 173.009 217.183 168.907 217.437C164.806 217.628 154.711 222.957 165.816 224.543C165.816 224.543 179.571 224.353 182.788 219.785L182.978 223.719L189.161 223.401C189.161 223.401 192.884 214.265 188.593 211.981L179.697 212.425Z" fill="#BAACA6"/>
<path d="M208.342 212.425C208.342 212.425 215.03 217.183 219.132 217.437C223.233 217.628 233.328 222.957 222.223 224.543C222.223 224.543 208.468 224.353 205.251 219.785L205.061 223.719L198.878 223.401C198.878 223.401 195.155 214.265 199.446 211.981L208.342 212.425Z" fill="#BAACA6"/>
<path d="M203.421 100.185C200.077 100.185 197.174 103.23 195.849 107.672C194.903 107.418 193.956 107.291 192.947 107.291C192.505 107.291 192.127 107.291 191.748 107.354C190.36 103.103 187.521 100.185 184.177 100.185C179.697 100.185 176.1 105.578 175.848 112.367V112.684C175.848 112.874 175.848 113.001 175.848 113.192C175.848 114.08 175.911 114.968 176.037 115.793L180.265 213.63C180.265 213.63 184.429 218.706 189.54 213.884L191.243 131.084C191.811 131.148 192.379 131.211 192.947 131.211C194.02 131.211 195.092 131.084 196.039 130.83L199.446 213.63C203.673 217.691 208.721 213.884 208.721 213.884L210.866 116.935C210.929 114.017 210.992 109.702 210.992 107.418C211.055 100.248 208.09 100.185 203.421 100.185Z" fill="#3E3538"/>
<path d="M179.949 58.8166C159.822 72.2042 141.398 99.9311 158.749 122.963C161.21 126.262 165.248 127.975 169.097 125.691C172.315 123.788 174.334 118.585 171.81 115.286C166.194 107.862 165.626 100.375 169.286 92.5076C173.198 84.0056 180.138 76.9628 187.647 71.9504C191.054 69.6663 192.505 65.2883 190.36 61.5449C188.278 58.1187 183.356 56.5325 179.949 58.8166Z" fill="#5B4948"/>
<path d="M202.916 71.6966C211.56 78.2318 223.864 74.9959 232.192 69.6663C242.035 63.3849 245.569 52.2815 247.272 41.3049C247.903 37.1808 246.326 33.1201 241.972 31.9146C238.376 30.8994 233.265 33.1201 232.634 37.2442C231.688 43.3353 230.552 51.9642 225.82 55.5808C223.044 57.6746 220.709 58.7532 217.617 59.6415C214.652 60.4663 213.074 60.4663 210.488 58.4994C207.207 56.0249 202.033 57.9284 200.14 61.2277C197.931 65.1615 199.635 69.2221 202.916 71.6966Z" fill="#5B4948"/>
<path d="M182.347 57.4207C182.852 57.1669 183.356 56.9766 183.798 56.7863C183.293 56.9766 182.852 57.1669 182.347 57.4207Z" fill="#EFE6E1"/>
<path d="M207.711 57.5476C208.153 57.738 208.595 57.9917 209.036 58.2455C208.595 57.9283 208.153 57.738 207.711 57.5476Z" fill="#EFE6E1"/>
<path d="M197.237 85.0207L207.711 57.4842C203.736 55.5807 199.509 54.8194 195.471 53.8042C195.281 53.7407 195.092 53.7407 194.903 53.8042C194.714 53.8042 194.524 53.8042 194.335 53.8042C191.937 54.4387 189.477 54.9462 187.079 55.6442L197.237 85.0207Z" fill="#EFE6E1"/>
<path d="M198.499 13.7048C198.499 14.0855 198.562 14.4662 198.689 14.8469C199.509 18.0193 202.537 21.509 206.134 21.1283C208.468 20.8745 210.74 19.9862 211.939 17.829C212.885 16.1159 213.327 13.8317 212.696 11.9283C211.497 8.31172 207.396 5.07586 203.421 6.59862C201.654 7.2331 200.329 8.12138 199.32 9.77103C198.815 10.5324 198.436 11.4841 198.562 12.3724C198.562 12.4993 198.562 12.5628 198.625 12.6897V12.7531C198.625 12.7531 198.625 12.7531 198.625 12.8166C198.436 13.1338 198.436 13.451 198.499 13.7048ZM203.736 16.1793C203.862 16.1793 204.052 16.2428 204.178 16.2428C203.989 16.1793 203.862 16.1793 203.736 16.1793Z" fill="#D8914C"/>
<path d="M201.276 44.6676H192.947V59.0704H201.276V44.6676Z" fill="#FEAF9A"/>
<path d="M201.276 49.3628C200.077 50.3779 198.625 50.949 197.111 50.949C195.597 50.949 194.146 50.3779 192.947 49.3628V44.6676H201.276V49.3628Z" fill="#FFB39D"/>
<path d="M182.599 30.2014C182.662 33.6276 182.347 37.6248 183.609 40.8607C187.458 50.6317 207.396 50.8855 210.803 40.5434C211.939 37.1807 211.623 33.12 211.686 29.5669C211.749 25.6331 211.56 21.7627 211.182 17.8289C210.614 11.3572 203.231 8.88274 197.868 8.81929C193.01 8.75585 183.672 11.5476 183.104 17.8289C182.725 21.9531 182.473 26.1407 182.599 30.2014Z" fill="#FFB39D"/>
<path d="M184.366 29.44C184.177 28.9959 183.987 28.5517 183.735 28.1076C183.672 28.0441 183.609 27.8538 183.609 27.7904C183.609 27.8538 183.672 27.9807 183.735 28.171C183.672 27.9807 183.546 27.7904 183.483 27.6C183.041 27.029 183.041 26.9655 183.419 27.5366C183.041 26.9655 182.284 26.4579 181.59 26.4579C181.527 26.4579 181.4 26.3945 181.337 26.3945C180.265 26.1407 179.129 26.5848 178.372 27.4097C176.794 29.2497 177.236 32.0414 178.624 33.8179C179.192 34.5793 180.328 35.0869 181.274 35.0235C182.536 34.96 183.546 34.1986 184.177 33.0566C184.808 31.851 184.871 30.5821 184.366 29.44Z" fill="#FFB39D"/>
<path d="M206.954 26.0772C204.872 26.5214 202.979 27.9172 202.348 30.011C201.654 32.2317 202.979 34.1986 204.746 35.4041C204.62 35.0234 204.557 34.5793 204.43 34.1986C204.241 34.6428 203.926 35.0869 203.61 35.2138C203.484 35.2772 203.358 35.2138 203.168 35.2138C202.916 35.1503 202.601 35.0869 202.348 35.0234C201.78 34.8966 201.149 35.531 201.528 36.1021C202.096 36.9269 203.105 37.3076 204.115 36.9903C205.124 36.6731 205.692 35.8483 206.071 34.8966C206.197 34.5159 206.008 34.0717 205.692 33.8814C204.367 33.12 203.358 31.851 203.799 30.2648C204.304 28.6152 205.882 27.4731 207.27 26.6483C207.522 26.4579 207.333 25.9503 206.954 26.0772Z" fill="#F48364"/>
<path d="M209.983 30.4552C209.983 31.7241 209.415 32.7393 208.658 32.7393C207.964 32.7393 207.333 31.7241 207.333 30.4552C207.333 29.1862 207.901 28.171 208.658 28.171C209.415 28.171 209.983 29.1862 209.983 30.4552Z" fill="#49291C"/>
<path d="M195.345 30.4552C195.345 31.7241 194.777 32.7393 194.02 32.7393C193.325 32.7393 192.694 31.7241 192.694 30.4552C192.694 29.1862 193.262 28.171 194.02 28.171C194.714 28.171 195.345 29.1862 195.345 30.4552Z" fill="#49291C"/>
<path d="M201.276 40.6069C203.358 39.2745 196.796 40.0993 195.408 38.3862C195.408 38.3862 195.66 44.2235 201.276 40.6069Z" fill="white"/>
<path d="M182.725 27.8537C178.435 23.0317 177.93 12.5627 183.672 8.43857C184.429 7.93098 185.502 8.31167 185.943 9.0096C189.035 14.2124 183.987 20.9379 185.06 26.4579C185.312 27.7268 183.735 28.9958 182.725 27.8537Z" fill="#D8914C"/>
<path d="M192.568 57.2303C192.884 55.4538 194.966 54.502 196.606 54.9462C197.111 55.0731 197.49 55.3269 197.868 55.6441C199.067 55.3903 200.266 56.1517 200.645 57.3572C200.834 57.9282 200.897 58.4358 200.96 59.0069C200.834 58.182 201.023 59.3241 201.023 59.5779C201.086 59.9586 200.96 60.4027 200.897 60.8469C200.708 62.3062 199.509 63.7655 198.058 64.2096C196.102 64.7807 194.209 63.0676 193.199 61.4813C192.316 60.1489 192.253 58.6896 192.568 57.2303Z" fill="#3F1C25"/>
<path d="M190.044 55.2634L193.01 51.9641L197.048 53.8041L197.111 53.8676V53.8041L201.212 51.9641L204.178 55.2634L201.465 62.3696L197.111 56.2151L192.758 62.3696L190.044 55.2634Z" fill="#FFE7D6"/>
<path d="M198.752 62.6235L202.096 105.768L198.121 112.557L193.262 105.768L195.597 62.6235H198.752Z" fill="#3F1C25"/>
<path d="M209.478 5.64695C208.91 3.68006 207.396 2.0304 204.557 1.01523C198.689 -1.07856 187.458 0.253849 182.347 4.18764C174.207 10.469 178.498 23.9835 187.647 26.2042C196.606 28.3614 212.38 15.7352 209.478 5.64695Z" fill="#D8914C"/>
<path d="M207.964 24.1739C208.532 24.1739 209.099 24.2373 209.73 24.2373C211.055 24.3008 212.57 23.4125 212.57 21.9532C212.57 20.6208 211.182 19.6691 209.92 19.6691C209.289 19.6691 208.658 19.7325 207.964 19.7325C206.765 19.796 205.755 20.6842 205.755 21.9532C205.755 23.2222 206.765 24.1739 207.964 24.1739Z" fill="#D8914C"/>
<path d="M209.036 58.1821C208.595 57.9283 208.153 57.738 207.711 57.4842L197.237 85.0207L187.079 55.6442C184.934 56.2786 182.788 57.04 180.769 58.1821C178.94 59.1973 177.678 60.9738 176.542 63.4483C175.722 65.1614 174.965 67.1283 174.649 69.2855L174.334 113.826L213.453 114.27L215.094 69.2855C214.778 67.1918 214.021 65.1614 213.201 63.4483C212.065 60.9738 210.866 59.1973 209.036 58.1821Z" fill="#5A4848"/>
<path d="M209.036 58.1821C208.595 57.9283 208.153 57.738 207.711 57.4842L197.237 85.0207L187.079 55.6442C184.934 56.2786 182.788 57.04 180.769 58.1821C178.94 59.1973 177.678 60.9738 176.542 63.4483C175.722 65.1614 174.965 67.1283 174.649 69.2855L174.334 113.826L213.453 114.27L215.094 69.2855C214.778 67.1918 214.021 65.1614 213.201 63.4483C212.065 60.9738 210.866 59.1973 209.036 58.1821Z" fill="#5A4848"/>
<path d="M247.02 22.3338C246.263 20.4304 245.001 19.4152 243.55 20.1131C242.729 20.4938 239.385 30.6455 238.881 29.6938C238.881 29.6938 238.881 29.6938 238.818 29.6304C238.754 29.5035 238.565 28.9959 238.754 29.6304C238.25 28.298 237.051 27.4731 235.663 27.8538C234.401 28.1711 233.391 29.6938 233.896 30.9628C234.275 31.978 234.842 32.8662 235.663 33.6911L235.726 33.7545C235.852 34.0718 236.041 34.3255 236.357 34.5159C236.672 34.7697 236.925 34.96 237.24 35.2138L237.303 35.2773C237.682 35.658 238.123 35.9118 238.691 36.1021C239.448 36.4193 240.269 36.5462 241.089 36.4193C248.03 35.658 248.85 26.7752 247.02 22.3338ZM240.521 26.9021C240.521 27.0924 240.584 27.2828 240.584 27.4731C240.521 27.2828 240.521 27.0924 240.458 27.029C240.521 26.9655 240.521 26.9655 240.521 26.9021ZM239.133 29.9476C239.259 29.8842 239.322 29.8207 239.133 29.9476V29.9476Z" fill="#FFB39D"/>
<path d="M171.116 136.921C173.009 137.683 174.649 137.556 175.154 136.033C175.469 135.145 170.674 125.691 171.747 125.945H171.81C171.999 126.008 172.441 126.199 171.873 125.945C173.135 126.516 174.586 126.262 175.343 124.993C175.974 123.851 175.659 122.075 174.397 121.504C173.387 121.059 172.378 120.806 171.242 120.806C171.179 120.806 171.179 120.806 171.116 120.806C170.8 120.679 170.485 120.615 170.106 120.679C169.728 120.742 169.349 120.742 168.97 120.806C168.97 120.806 168.907 120.806 168.844 120.806C168.276 120.806 167.772 120.932 167.33 121.186C166.573 121.504 165.879 122.011 165.374 122.646C161.02 128.229 166.699 135.081 171.116 136.921ZM172.504 129.054C172.378 128.927 172.188 128.864 172.062 128.737C172.188 128.864 172.315 128.99 172.504 129.054C172.441 129.054 172.441 129.054 172.504 129.054ZM171.368 125.945C171.305 126.135 171.305 126.199 171.368 125.945V125.945Z" fill="#FFB39D"/>
<path d="M271.059 205.255C271.059 205.255 269.419 213.313 266.58 216.295C263.677 219.277 259.955 230.127 269.103 223.592C269.103 223.592 279.073 214.011 278.315 208.428L281.092 211.156L285.382 206.715C285.382 206.715 281.912 197.515 277.243 198.783L271.059 205.255Z" fill="#704A3D"/>
<path d="M328.035 119.41C327.467 112.177 324.754 106.466 318.634 102.469C313.775 99.3602 307.529 98.7891 301.976 98.916C298.948 98.9795 295.856 99.3602 292.891 99.9312C290.998 100.312 289.357 101.01 287.591 101.517C285.887 100.502 283.805 100.122 281.912 100.883C273.268 104.436 267.968 113.128 262.163 120.171C256.106 127.531 250.301 135.018 245.253 143.076C240.773 150.182 236.546 158.557 238.376 167.25C240.458 177.021 249.355 181.906 258.503 183.048C265.255 183.873 272.195 183.556 279.01 183.873C286.644 184.254 294.405 183.937 301.85 182.16C309.548 180.384 316.741 176.133 321.347 169.661C325.89 163.316 326.079 154.306 326.521 146.756C327.089 137.683 328.792 128.419 328.035 119.41Z" fill="#D9924E"/>
<path d="M284.751 142.886C283.931 143.393 283.048 143.837 282.164 144.281C281.66 144.535 281.092 144.789 280.587 145.043C280.082 145.297 277.685 146.248 279.704 145.423C276.612 146.692 273.52 147.898 270.429 149.167C263.172 152.022 255.853 154.941 249.039 158.684C243.234 161.857 236.988 165.981 233.77 171.945C229.669 179.622 232.508 188.061 238.691 193.644C247.272 201.385 258.882 203.986 269.608 207.476C273.52 208.745 277.874 206.017 278.946 202.146C280.082 198.022 277.558 194.088 273.646 192.756C265.759 190.154 257.872 188.505 251.121 184.063C249.922 183.239 250.112 183.429 249.418 182.794C248.724 182.16 248.093 181.526 247.525 180.828C246.768 179.876 247.903 181.399 247.399 180.637C247.272 180.447 247.146 180.257 247.02 180.003C246.074 178.099 247.335 181.081 246.894 179.622C246.452 178.036 246.957 181.145 246.894 179.876C246.831 178.353 246.768 180.193 246.768 180.193C246.894 180.003 247.146 179.114 247.146 178.861C247.083 180.383 246.452 180.193 246.894 179.559C247.083 179.305 247.272 178.924 247.399 178.67C248.03 177.274 246.515 179.432 247.399 178.607C247.777 178.226 248.156 177.782 248.534 177.401C248.976 176.957 249.418 176.577 249.796 176.196C251.31 174.8 249.165 176.513 250.616 175.561C253.14 173.848 255.664 172.262 258.377 170.866C261.343 169.343 264.371 167.948 267.4 166.615C268.473 166.171 266.39 167.059 267.463 166.615C267.778 166.488 268.094 166.361 268.409 166.234C269.23 165.917 270.05 165.537 270.87 165.219C272.448 164.585 274.088 163.95 275.665 163.316C281.281 161.095 287.338 159.128 292.449 155.956C300.651 150.88 293.08 137.746 284.751 142.886Z" fill="#C4A386"/>
<path d="M216.355 122.582C212.254 123.47 208.91 127.595 209.92 131.846C210.488 134.257 212.948 134.637 214.589 133.686C214.778 133.749 215.03 133.749 215.283 133.749C217.428 133.686 219.51 133.051 221.655 133.242C223.422 133.368 224.873 131.655 224.873 130.006C224.936 124.93 221.34 121.504 216.355 122.582Z" fill="#FFB39D"/>
<path d="M277.621 50.9491C277.621 50.8857 277.621 50.8857 277.621 50.9491C277.621 50.8857 277.621 50.8222 277.621 50.8222C277.621 50.6953 277.621 50.6319 277.684 50.505C277.748 49.5533 277.369 48.665 276.927 47.9036C275.918 46.3174 274.53 45.4291 272.826 44.7312C268.851 43.2084 264.75 46.4443 263.551 50.0608C262.92 51.9643 263.362 54.2484 264.308 55.9615C265.507 58.1188 267.778 59.0705 270.113 59.2608C273.709 59.6415 276.738 56.1519 277.558 52.9795C277.684 52.5988 277.685 52.2181 277.748 51.8374C277.685 51.5836 277.684 51.2664 277.621 50.9491ZM271.943 54.3753C272.132 54.3753 272.258 54.3119 272.448 54.3119C272.448 54.3119 272.448 54.3119 272.384 54.3119C272.321 54.3119 272.132 54.3119 271.943 54.3753Z" fill="#2D294C"/>
<path d="M283.174 82.8H274.845V97.2028H283.174V82.8Z" fill="#FEAF9A"/>
<path d="M274.845 87.4952C276.044 88.5104 277.495 89.0814 279.01 89.0814C280.524 89.0814 281.975 88.5104 283.174 87.4952V82.8H274.845V87.4952Z" fill="#FFB39D"/>
<path d="M293.08 56.0249C292.512 49.7435 283.174 47.0153 278.315 47.0153C272.952 47.0787 265.57 49.4897 265.002 56.0249C264.624 59.8953 264.434 63.8291 264.497 67.7628C264.561 71.316 264.308 75.3132 265.381 78.7394C268.788 89.0815 288.663 88.8277 292.575 79.0566C293.837 75.8208 293.522 71.7601 293.585 68.3973C293.648 64.2097 293.395 60.0856 293.08 56.0249Z" fill="#FFB39D"/>
<path d="M291.944 71.1257C292.512 72.2043 293.585 73.0291 294.847 73.0926C295.793 73.156 296.866 72.6484 297.497 71.887C298.885 70.1105 299.326 67.3188 297.749 65.4788C296.992 64.6539 295.919 64.2098 294.783 64.4636C294.72 64.4636 294.594 64.527 294.531 64.527C293.774 64.5905 293.08 65.0346 292.701 65.6057C293.08 65.0981 293.08 65.0981 292.638 65.6691C292.575 65.8594 292.449 66.0498 292.386 66.2401C292.449 66.0498 292.512 65.9229 292.512 65.8595C292.512 65.9229 292.449 66.0498 292.386 66.1767C292.133 66.6208 291.944 67.0015 291.755 67.5091C291.313 68.7146 291.376 69.9836 291.944 71.1257Z" fill="#FFB39D"/>
<path d="M265.507 67.9533C265.507 69.2223 266.075 70.2375 266.832 70.2375C267.526 70.2375 268.157 69.2223 268.157 67.9533C268.157 66.6844 267.589 65.6692 266.832 65.6692C266.138 65.6692 265.507 66.6844 265.507 67.9533Z" fill="#49291C"/>
<path d="M280.208 67.9533C280.208 69.2223 280.776 70.2375 281.533 70.2375C282.227 70.2375 282.858 69.2223 282.858 67.9533C282.858 66.6844 282.291 65.6692 281.533 65.6692C280.776 65.6692 280.208 66.6844 280.208 67.9533Z" fill="#49291C"/>
<path d="M279.64 61.4815C280.713 61.3546 281.66 61.4181 282.669 61.7353C283.679 62.0526 284.562 62.5601 285.635 62.3063C286.329 62.116 286.707 61.4181 286.518 60.7201C285.824 57.865 281.407 58.0553 279.262 58.6263C277.748 59.0705 278 61.6719 279.64 61.4815Z" fill="#2D294C"/>
<path d="M269.04 61.4815C268.22 61.3546 267.463 61.4181 266.643 61.7353C265.886 62.0526 265.128 62.5601 264.308 62.3063C263.74 62.116 263.488 61.4181 263.614 60.7201C264.182 57.865 267.652 58.0553 269.356 58.6263C270.555 59.0705 270.365 61.6719 269.04 61.4815Z" fill="#2D294C"/>
<path d="M293.395 65.9228C297.686 61.1008 298.191 50.6318 292.449 46.5077C291.692 46.0001 290.619 46.3808 290.177 47.0787C287.086 52.2814 292.133 59.007 291.061 64.527C290.808 65.8594 292.386 67.0649 293.395 65.9228Z" fill="#2D294C"/>
<path d="M268.536 34.1987C271.88 33.5642 273.962 39.7187 277.811 41.7491C280.587 43.2084 282.669 42.7642 285.193 41.2415C288.474 39.2746 292.197 42.0029 292.26 45.556C292.323 56.3422 273.457 56.0249 267.842 51.7739C263.425 48.4746 261.343 41.9394 264.813 37.2442C266.264 35.3408 267.463 34.4525 268.536 34.1987Z" fill="#2D294C"/>
<path d="M279.767 74.298C280.019 75.7574 279.577 77.407 278.252 78.2953C277.054 79.1201 275.161 79.1201 274.467 77.7243C274.34 77.4705 274.53 77.0898 274.908 77.1532C275.855 77.4705 276.549 77.8512 277.495 77.3436C278.505 76.7725 278.82 75.5036 278.694 74.4249C278.694 73.8539 279.704 73.727 279.767 74.298Z" fill="white"/>
<path d="M294.531 64.5271L285.067 68.6512" stroke="#3F1C25" stroke-miterlimit="10" stroke-linecap="round"/>
<path d="M269.861 63.258C270.996 64.4001 272.258 65.9229 272.321 67.636C272.384 69.2856 271.059 70.3008 269.608 70.6815C269.293 70.7449 268.914 71.1256 268.977 71.5063C269.103 72.5215 269.419 73.4732 270.302 74.0442C271.186 74.5518 272.258 74.4884 273.015 73.8539C273.52 73.4098 273.079 72.6484 272.511 72.5849C272.258 72.5849 271.943 72.5849 271.69 72.5849C271.501 72.5849 271.375 72.5849 271.249 72.458C270.933 72.2677 270.807 71.7601 270.681 71.316C270.492 71.6967 270.302 72.0139 270.05 72.3946C272.069 71.6967 273.836 70.1739 273.709 67.8263C273.583 65.6691 272.132 63.7656 270.239 62.8139C269.924 62.6236 269.608 63.0042 269.861 63.258Z" fill="#F48364"/>
<path d="M285.193 68.7147C285.193 72.3312 282.795 75.1864 279.83 75.1864C276.864 75.1864 274.467 72.2678 274.467 68.7147C274.467 65.0981 276.864 62.243 279.83 62.243C282.795 62.1795 285.193 65.0981 285.193 68.7147Z" stroke="#3F1C25" stroke-miterlimit="10"/>
<path d="M265.381 75.1869C268.099 75.1869 270.302 72.2894 270.302 68.7151C270.302 65.1409 268.099 62.2434 265.381 62.2434C262.663 62.2434 260.459 65.1409 260.459 68.7151C260.459 72.2894 262.663 75.1869 265.381 75.1869Z" stroke="#3F1C25" stroke-miterlimit="10"/>
<path d="M274.53 68.7148C274.53 68.7148 271.564 65.6692 270.302 68.2072" stroke="#3F1C25" stroke-miterlimit="10"/>
<path d="M269.608 70.618C270.492 70.3642 271.059 69.9835 271.501 69.6028H273.457C272.952 70.618 272.006 71.3793 270.996 71.9504C271.438 72.458 272.069 72.5214 272.826 72.7117C273.268 72.8386 273.331 73.3462 273.079 73.6635C271.564 75.6304 269.293 73.5366 269.04 71.76C268.914 71.2524 269.103 70.8083 269.608 70.618Z" fill="#F48364"/>
<path d="M309.737 206.524H307.592H305.573H289.42C289.925 205.7 290.177 204.748 290.177 203.796C290.177 201.512 288.789 199.545 286.833 198.72V158.748H282.227V198.911C280.524 199.862 279.325 201.639 279.325 203.733C279.325 204.748 279.577 205.7 280.082 206.461H263.93H261.847H259.702V211.093H261.847V217.691H263.867V211.093H283.679V217.691H285.698V211.093H305.51V217.691H307.529V211.093H309.674V206.524H309.737Z" fill="#B8B8B8"/>
<path d="M302.103 220.737C302.103 223.211 304.059 225.178 306.519 225.178C308.98 225.178 310.936 223.211 310.936 220.737C310.936 218.262 308.98 216.295 306.519 216.295C304.122 216.295 302.103 218.262 302.103 220.737Z" fill="#55637A"/>
<path d="M258.44 220.737C258.44 223.211 260.396 225.178 262.857 225.178C265.318 225.178 267.274 223.211 267.274 220.737C267.274 218.262 265.318 216.295 262.857 216.295C260.396 216.295 258.44 218.262 258.44 220.737Z" fill="#55637A"/>
<path d="M280.271 220.737C280.271 223.211 282.227 225.178 284.688 225.178C287.149 225.178 289.105 223.211 289.105 220.737C289.105 218.262 287.149 216.295 284.688 216.295C282.227 216.295 280.271 218.262 280.271 220.737Z" fill="#55637A"/>
<path d="M258.756 102.469C257.872 107.355 256.674 111.923 253.519 115.159C250.932 117.76 247.209 119.537 243.55 120.679C238.691 122.201 235.41 122.582 230.489 122.709C228.281 122.772 226.072 122.709 223.927 122.582C222.854 122.519 221.845 122.455 220.772 122.328C220.267 122.265 219.763 122.201 219.258 122.138C220.835 122.328 218.501 122.011 218.374 122.011C214.336 121.313 210.235 123.026 209.036 127.341C208.027 131.021 210.235 136.033 214.336 136.731C225.82 138.635 237.997 138.571 249.102 134.828C254.97 132.861 260.396 129.752 264.75 125.31C269.734 120.235 272.132 113.382 273.331 106.466C274.025 102.406 272.321 98.2814 268.031 97.0759C264.371 96.1242 259.45 98.4083 258.756 102.469Z" fill="#2D294C"/>
<path d="M238.754 212.932C238.754 212.932 232.066 217.754 227.965 217.945C223.864 218.135 213.768 223.465 224.873 225.051C224.873 225.051 238.628 224.861 241.846 220.292L242.035 224.226L248.219 223.909C248.219 223.909 251.941 214.772 247.651 212.488L238.754 212.932Z" fill="#704A3D"/>
<path d="M249.607 213.694C251.121 213.694 252.951 196.182 254.15 194.088C258.125 187.046 268.725 181.145 275.981 178.353C282.858 175.688 291.061 176.196 297.497 172.389C311.693 164.141 304.122 147.391 288.474 149.802C280.208 151.134 274.025 156.146 266.453 158.938C257.999 162.047 249.544 165.981 244.685 173.975C240.71 180.574 239.512 189.33 238.376 196.817C237.808 200.687 237.745 204.557 237.24 208.364C236.988 210.141 236.798 211.854 236.735 213.567C236.735 213.694 249.607 213.694 249.607 213.694Z" fill="#DBB896"/>
<mask id="mask0_767_717" style="mask-type:luminance" maskUnits="userSpaceOnUse" x="260" y="92" width="42" height="61">
<path d="M299.579 101.835C298.443 99.4235 297.244 97.647 295.351 96.5683C290.998 94.1573 286.329 93.3325 281.786 92.1904C281.596 92.127 281.407 92.127 281.218 92.1904C281.029 92.1904 280.839 92.1904 280.65 92.1904C276.107 93.3325 271.438 94.1573 267.084 96.5683C265.255 97.5835 263.993 99.3601 262.857 101.835C262.1 103.548 261.28 105.515 260.964 107.672L262.605 152.657L301.724 152.212L301.409 107.672C301.219 105.515 300.399 103.484 299.579 101.835Z" fill="white"/>
</mask>
<g mask="url(#mask0_767_717)">
<path d="M299.579 101.835C298.443 99.4235 297.244 97.647 295.351 96.5683C290.998 94.1573 286.329 93.3325 281.786 92.1904C281.596 92.127 281.407 92.127 281.218 92.1904C281.029 92.1904 280.839 92.1904 280.65 92.1904C276.107 93.3325 271.438 94.1573 267.084 96.5683C265.255 97.5835 263.993 99.3601 262.857 101.835C262.1 103.548 261.28 105.515 260.964 107.672L262.605 152.657L301.724 152.212L301.409 107.672C301.219 105.515 300.399 103.484 299.579 101.835Z" fill="#3B3B61"/>
</g>
<mask id="mask1_767_717" style="mask-type:luminance" maskUnits="userSpaceOnUse" x="260" y="92" width="42" height="61">
<path d="M299.579 101.835C298.443 99.4235 297.244 97.647 295.351 96.5683C290.998 94.1573 286.329 93.3325 281.786 92.1904C281.596 92.127 281.407 92.127 281.218 92.1904C281.029 92.1904 280.839 92.1904 280.65 92.1904C276.107 93.3325 271.438 94.1573 267.084 96.5683C265.255 97.5835 263.993 99.3601 262.857 101.835C262.1 103.548 261.28 105.515 260.964 107.672L262.605 152.657L301.724 152.212L301.409 107.672C301.219 105.515 300.399 103.484 299.579 101.835Z" fill="white"/>
</mask>
<g mask="url(#mask1_767_717)">
<path d="M279.073 102.723C289.178 102.723 297.37 95.0529 297.37 85.5917C297.37 76.1305 289.178 68.4607 279.073 68.4607C268.967 68.4607 260.775 76.1305 260.775 85.5917C260.775 95.0529 268.967 102.723 279.073 102.723Z" fill="#DBDAEA"/>
</g>
<path d="M283.616 94.2843C283.3 92.9519 281.218 92.1905 279.577 92.5077C279.073 92.6346 278.694 92.825 278.315 93.0153C277.117 92.825 275.918 93.396 275.539 94.3477C275.35 94.7919 275.287 95.1725 275.224 95.6167C275.35 94.9822 275.161 95.8705 275.161 96.0608C275.098 96.3781 275.224 96.6953 275.287 97.0125C275.476 98.1546 276.675 99.2967 278.126 99.6139C280.082 100.058 281.975 98.7256 282.985 97.5201C283.805 96.5684 283.868 95.4263 283.616 94.2843Z" fill="#3F1C25"/>
<path d="M290.493 102.659C289.61 107.545 288.411 112.113 285.256 115.349C282.669 117.95 278.946 119.727 275.287 120.869C270.428 122.392 267.148 122.773 262.226 122.899C260.018 122.963 257.809 122.899 255.664 122.773C254.591 122.709 253.582 122.646 252.509 122.519C252.005 122.455 251.5 122.392 250.995 122.328C252.572 122.519 250.238 122.202 250.112 122.202C246.074 121.504 241.972 123.217 240.773 127.531C239.764 131.211 241.972 136.224 246.074 136.922C257.557 138.825 269.734 138.762 280.839 135.018C286.707 133.051 292.133 129.942 296.487 125.501C301.472 120.425 303.869 113.573 305.068 106.657C305.762 102.596 304.059 98.4719 299.768 97.2663C296.108 96.3146 291.187 98.5988 290.493 102.659Z" fill="#2D294C"/>
<path d="M280.524 98.0911L280.776 102.659C280.208 102.723 279.64 102.723 279.073 102.723C278.379 102.723 277.685 102.723 276.99 102.659L277.369 98.0911H280.524Z" fill="#3F1C25"/>
<path d="M286.139 93.0154L283.174 89.7161L279.073 91.5561V91.6195L279.01 91.5561L274.971 89.7161L272.006 93.0154L274.719 100.122L279.073 93.9671L283.426 100.122L286.139 93.0154Z" fill="#DBDAEA"/>
<path d="M248.093 122.773C243.991 123.661 240.647 127.785 241.657 132.036C242.225 134.447 244.685 134.828 246.326 133.876C246.515 133.94 246.768 133.94 247.02 133.94C249.165 133.876 251.247 133.242 253.393 133.432C255.159 133.559 256.611 131.846 256.611 130.196C256.674 125.12 253.077 121.694 248.093 122.773Z" fill="#FFB39D"/>
<path d="M202.348 129.752C202.727 131.782 204.746 133.432 206.765 133.432H249.859C251.878 133.432 253.203 131.782 252.825 129.752L247.777 103.675C247.399 101.644 245.379 99.9946 243.36 99.9946H200.266C198.247 99.9946 196.922 101.644 197.3 103.675L202.348 129.752Z" fill="#9393AC"/>
<path d="M226.514 116.237C226.829 118.522 225.378 120.362 223.233 120.362C221.151 120.362 219.195 118.522 218.879 116.237C218.564 113.953 220.015 112.113 222.16 112.113C224.305 112.113 226.261 113.953 226.514 116.237Z" fill="#B8B7C9"/>
<path d="M316.236 147.073C319.328 146.756 320.842 142.441 317.75 140.792C315.857 139.777 314.28 138.698 312.009 138.571C309.863 138.444 307.718 138.698 305.636 139.079C295.351 141.172 287.78 155.512 285.319 164.521C284.31 168.328 282.606 174.61 286.076 177.655C290.367 181.399 303.743 177.275 307.718 174.737C313.207 171.184 317.94 166.361 319.58 159.826C320.716 155.131 319.454 150.119 316.236 147.073Z" fill="#D9924E"/>
<path d="M19.2442 206.524H21.3895H23.4085H39.5611C39.1194 205.699 38.8039 204.748 38.8039 203.796C38.8039 201.512 40.192 199.545 42.148 198.72V158.748H46.754V198.91C48.4576 199.862 49.6564 201.639 49.6564 203.732C49.6564 204.748 49.404 205.699 48.8992 206.461H65.0518H67.0708H69.2161V211.092H67.0708V217.691H65.0518V211.092H45.2397V217.691H43.2206V211.092H23.4085V217.691H21.3895V211.092H19.2442V206.524Z" fill="#B8B8B8"/>
<path d="M26.8157 220.737C26.8157 223.211 24.8597 225.178 22.399 225.178C19.9383 225.178 17.9823 223.211 17.9823 220.737C17.9823 218.262 19.9383 216.295 22.399 216.295C24.8597 216.295 26.8157 218.262 26.8157 220.737Z" fill="#55637A"/>
<path d="M70.5411 220.737C70.5411 223.211 68.5851 225.178 66.1244 225.178C63.6636 225.178 61.7077 223.211 61.7077 220.737C61.7077 218.262 63.6636 216.295 66.1244 216.295C68.522 216.295 70.5411 218.262 70.5411 220.737Z" fill="#55637A"/>
<path d="M48.6468 220.737C48.6468 223.211 46.6909 225.178 44.2301 225.178C41.7694 225.178 39.8134 223.211 39.8134 220.737C39.8134 218.262 41.7694 216.295 44.2301 216.295C46.6909 216.295 48.6468 218.262 48.6468 220.737Z" fill="#55637A"/>
<path d="M0.946435 119.41C1.5143 112.176 4.22742 106.466 10.3477 102.469C15.2061 99.3599 21.4526 98.7889 27.005 98.9158C30.0336 98.9792 33.1253 99.3599 36.0908 99.931C37.9837 100.312 39.6241 101.01 41.3908 101.517C43.0944 100.502 45.1766 100.121 47.0694 100.883C55.7136 104.436 61.0136 113.128 66.8184 120.171C72.8756 127.531 78.6804 135.018 83.7281 143.076C88.2079 150.182 92.4353 158.557 90.6055 167.25C88.5234 177.021 79.6269 181.906 70.478 183.048C63.7267 183.873 56.7862 183.556 49.9718 183.873C42.3373 184.254 34.5765 183.936 27.1312 182.16C19.4335 180.383 12.2406 176.132 7.63459 169.661C3.09169 163.316 2.9024 154.306 2.46073 146.756C1.89287 137.683 0.189286 128.419 0.946435 119.41Z" fill="#D9924E"/>
<path d="M110.796 212.108C110.796 212.108 117.484 216.866 121.586 217.12C125.687 217.31 135.782 222.64 124.677 224.226C124.677 224.226 110.922 224.036 107.704 219.468L107.515 223.402L101.332 223.084C101.332 223.084 97.6092 213.948 101.9 211.664L110.796 212.108Z" fill="#923B43"/>
<path d="M90.227 212.932C90.227 212.932 96.9151 217.754 101.016 217.945C105.118 218.135 115.213 223.465 104.108 225.051C104.108 225.051 90.3531 224.861 87.1353 220.292L86.946 224.226L80.7626 223.909C80.7626 223.909 77.0399 214.772 81.3304 212.488L90.227 212.932Z" fill="#923B43"/>
<path d="M29.9074 156.019C29.9074 160.016 36.9741 163.189 45.6813 163.189C54.3886 163.189 61.4553 159.953 61.4553 156.019C61.4553 152.022 54.3886 148.85 45.6813 148.85C36.9741 148.85 29.9074 152.022 29.9074 156.019Z" fill="#7B7068"/>
<path d="M100.322 213.694C97.0413 202.844 97.3568 190.979 92.3722 180.701C89.6591 175.054 81.5197 173.023 75.9673 171.12C67.7649 168.265 59.6255 165.283 51.2338 162.935C42.2111 160.397 46.6278 146.819 55.6505 149.294C64.9886 151.895 74.0744 155.194 83.2233 158.367C91.6782 161.286 100.07 165.029 104.865 172.77C108.777 179.114 109.913 187.617 110.985 194.85C111.553 198.53 111.553 202.337 111.995 206.017C112.31 208.618 112.626 211.219 112.374 213.694H100.322Z" fill="#685D56"/>
<path d="M79.3114 213.694C76.6614 203.225 76.4721 191.995 71.803 182.097C64.4839 166.615 44.8611 178.099 33.3146 173.785C16.2156 167.44 23.093 147.073 40.4444 149.801C48.7099 151.134 54.8933 156.146 62.4648 158.938C70.9196 162.047 79.3745 165.981 84.2328 173.975C88.2079 180.574 89.4067 189.33 90.5424 196.817C91.1103 200.687 91.1734 204.557 91.6782 208.364C91.9305 210.141 92.1198 211.854 92.1829 213.567H79.3114V213.694Z" fill="#7B7068"/>
<path d="M70.7934 102.659C71.6768 107.545 72.8756 112.113 76.0304 115.349C78.6173 117.95 82.34 119.727 85.9995 120.869C90.8579 122.392 94.1389 122.773 99.0604 122.899C101.269 122.963 103.477 122.899 105.622 122.773C106.695 122.709 107.704 122.646 108.777 122.519C109.282 122.455 109.787 122.392 110.291 122.328C108.714 122.519 111.049 122.202 111.175 122.202C115.213 121.504 119.314 123.217 120.513 127.531C121.522 131.211 119.314 136.224 115.213 136.922C103.729 138.825 91.552 138.762 80.4471 135.018C74.5792 133.051 69.153 129.942 64.7993 125.501C59.8148 120.425 57.4171 113.573 56.2183 106.657C55.5243 102.596 57.2279 98.4719 61.5184 97.2663C65.1779 96.3146 70.0363 98.5988 70.7934 102.659Z" fill="#FCDACA"/>
<path d="M123.92 122.138C128.021 123.026 131.365 127.151 130.356 131.402C129.788 133.813 127.327 134.193 125.687 133.242C125.497 133.305 125.245 133.305 124.993 133.305C122.847 133.242 120.765 132.607 118.62 132.797C116.853 132.924 115.402 131.211 115.402 129.562C115.339 124.486 118.872 121.059 123.92 122.138Z" fill="#FFB39D"/>
<path d="M51.2338 52.0911C51.2338 52.4717 51.2969 52.8524 51.4231 53.2331C52.2433 56.4055 55.2719 59.8952 58.8684 59.5145C61.2029 59.2607 63.4743 58.3724 64.6732 56.2152C65.6196 54.5021 66.0613 52.218 65.4303 50.3145C64.2315 46.698 60.1303 43.4621 56.1552 44.9848C54.3886 45.6193 53.0635 46.5076 52.054 48.1573C51.5492 48.9186 51.1707 49.8704 51.2969 50.7586C51.2969 50.8855 51.2969 50.949 51.36 51.0759V51.1393C51.36 51.1393 51.36 51.1393 51.36 51.2028C51.2338 51.52 51.2338 51.8373 51.2338 52.0911ZM56.5338 54.5655C56.66 54.5655 56.8493 54.629 56.9755 54.629C56.7862 54.5655 56.66 54.5655 56.5338 54.5655Z" fill="#49291C"/>
<path d="M54.0731 83.0537H45.7444V97.4565H54.0731V83.0537Z" fill="#FEAF9A"/>
<path d="M54.0731 87.7489C52.8743 88.7641 51.423 89.3351 49.9088 89.3351C48.3945 89.3351 46.9433 88.7641 45.7444 87.7489V83.0537H54.0731V87.7489Z" fill="#FFB39D"/>
<path d="M35.3967 68.5876C35.4598 72.0138 35.1443 76.011 36.4063 79.2469C40.2551 89.0179 60.1934 89.2717 63.6005 78.9297C64.7363 75.5669 64.4208 71.5062 64.4839 67.9531C64.547 64.0193 64.3577 60.149 63.9791 56.2152C63.4112 49.7435 56.029 47.269 50.6659 47.2055C45.8075 47.1421 36.4693 49.9338 35.9015 56.2152C35.5229 60.3393 35.2705 64.5269 35.3967 68.5876Z" fill="#FFB39D"/>
<path d="M37.1634 67.8262C36.9741 67.3821 36.7848 66.938 36.5324 66.4938C36.4693 66.4304 36.4063 66.24 36.4063 66.1766C36.4063 66.24 36.4693 66.3669 36.5324 66.5573C36.4693 66.3669 36.3432 66.1766 36.2801 65.9862C35.8384 65.4152 35.8384 65.3518 36.217 65.9228C35.8384 65.3518 35.0812 64.8442 34.3872 64.8442C34.3241 64.8442 34.1979 64.7807 34.1348 64.7807C33.0622 64.5269 31.9265 64.9711 31.1693 65.7959C29.5919 67.6359 30.0336 70.4276 31.4217 72.2042C31.9895 72.9656 33.1253 73.4731 34.0717 73.4097C35.3336 73.3462 36.3432 72.5849 36.9741 71.4428C37.6051 70.2373 37.6682 68.9683 37.1634 67.8262Z" fill="#FFB39D"/>
<path d="M59.7517 64.4635C57.6695 64.9076 55.7767 66.3035 55.1457 68.3973C54.4516 70.618 55.7767 72.5849 57.5433 73.7904C57.4171 73.4097 57.354 72.9655 57.2279 72.5849C57.0386 73.029 56.7231 73.4731 56.4076 73.6C56.2814 73.6635 56.1552 73.6 55.9659 73.6C55.7136 73.5366 55.3981 73.4731 55.1457 73.4097C54.5778 73.2828 53.9469 73.9173 54.3254 74.4883C54.8933 75.3131 55.9028 75.6938 56.9124 75.3766C57.9219 75.0593 58.4898 74.2345 58.8683 73.2828C58.9945 72.9021 58.8052 72.458 58.4898 72.2676C57.1648 71.5062 56.1552 70.2373 56.5969 68.6511C57.1017 67.0014 58.6791 65.8593 60.0672 65.0345C60.3195 64.8442 60.1303 64.3366 59.7517 64.4635Z" fill="#F48364"/>
<path d="M62.7803 68.8415C62.7803 70.1105 62.2124 71.1256 61.4553 71.1256C60.7612 71.1256 60.1303 70.1105 60.1303 68.8415C60.1303 67.5725 60.6981 66.5574 61.4553 66.5574C62.2124 66.5574 62.7803 67.5725 62.7803 68.8415Z" fill="#49291C"/>
<path d="M48.079 68.8415C48.079 70.1105 47.5111 71.1256 46.754 71.1256C46.0599 71.1256 45.429 70.1105 45.429 68.8415C45.429 67.5725 45.9968 66.5574 46.754 66.5574C47.5111 66.5574 48.079 67.5725 48.079 68.8415Z" fill="#49291C"/>
<path d="M49.2778 61.7352C48.2052 61.6083 47.2587 61.6717 46.2492 61.989C45.2397 62.3062 44.3563 62.8138 43.2837 62.56C42.5896 62.3697 42.2111 61.6717 42.4004 60.9738C43.0944 58.1186 47.5111 58.309 49.6564 58.88C51.2338 59.3241 50.9183 61.9255 49.2778 61.7352Z" fill="#492A1C"/>
<path d="M59.8779 61.7352C60.6981 61.6083 61.4553 61.6717 62.2755 61.989C63.0327 62.3062 63.7898 62.8138 64.6101 62.56C65.1779 62.3697 65.4303 61.6717 65.3041 60.9738C64.7362 58.1186 61.266 58.309 59.5624 58.88C58.3636 59.3241 58.616 61.9255 59.8779 61.7352Z" fill="#492A1C"/>
<path d="M51.9909 78.4221C51.8647 78.4221 52.054 78.4221 51.9278 78.4221C51.8647 78.4221 51.8016 78.4221 51.7385 78.4221C51.6123 78.4221 51.5492 78.4221 51.423 78.4221C51.2968 78.4221 51.2338 78.4221 51.1076 78.4221C51.0445 78.4221 50.9814 78.4221 50.9814 78.4221C51.0445 78.4221 51.1076 78.4221 50.9814 78.4221C50.7921 78.3587 50.6659 78.3587 50.4766 78.2952C50.4135 78.2952 50.4135 78.2318 50.3504 78.2318C50.2873 78.1683 50.2242 78.1683 50.098 78.1049C50.0349 78.1049 50.0349 78.0414 50.0349 78.0414C49.9087 77.978 49.9718 77.978 50.0349 78.0414C49.9718 77.978 49.9087 77.9145 49.8456 77.8511C49.7195 77.7242 49.5933 77.5973 49.4671 77.4069C49.3409 77.28 49.5302 77.5338 49.4671 77.3435C49.404 77.28 49.3409 77.2166 49.2778 77.1531C49.2147 77.0897 49.2147 77.0897 49.1516 77.0262C49.0885 76.8994 49.2147 77.0897 49.0885 76.9628C49.0254 76.8359 48.8992 76.709 48.773 76.6456C48.6468 76.5821 48.5837 76.5187 48.4575 76.4552C48.2052 76.2649 47.8266 76.5187 47.8266 76.8359C47.8266 76.9628 47.8266 77.1531 47.8897 77.28C47.9528 77.4069 48.0159 77.5338 48.079 77.6607C48.2052 77.9145 48.3313 78.1049 48.5206 78.2952C48.8361 78.6125 49.1516 78.9297 49.5302 79.1835C50.4135 79.6911 51.3599 79.7545 52.3695 79.5642C52.685 79.5007 52.8742 79.12 52.7481 78.8663C52.6219 78.549 52.3064 78.4221 51.9909 78.4221Z" fill="#F48364"/>
<path d="M31.7372 52.7255C33.5039 57.2938 41.1384 58.9435 43.7254 54.8193C44.9242 55.2 45.9968 55.7076 47.448 55.5807C49.2778 55.3904 50.9814 55.0731 52.685 54.3752C54.9564 53.4869 57.7957 51.1393 58.9945 48.9821C61.3922 44.858 55.1457 40.48 51.8647 39.6552C48.7099 38.8304 46.754 40.4166 45.3028 42.6373C43.0313 41.178 40.2551 40.48 37.7944 41.9393C35.2074 43.4621 33.1253 46.3173 32.936 49.3628C32.8729 49.4262 32.7467 49.4897 32.6836 49.5531C32.6205 49.6166 32.6205 49.68 32.5574 49.7435C31.8634 50.5049 31.2955 51.5835 31.7372 52.7255Z" fill="#49291C"/>
<path d="M35.5229 66.2401C31.2324 61.418 30.7276 50.9491 36.4694 46.8249C37.2265 46.3173 38.2991 46.698 38.7408 47.396C41.8325 52.5987 36.7848 59.3242 37.8575 64.8442C38.1098 66.1132 36.5324 67.3822 35.5229 66.2401Z" fill="#49291C"/>
<path d="M29.3395 101.835C30.4753 99.4235 31.6741 97.647 33.5669 96.5683C37.9206 94.1573 42.5896 93.3325 47.1325 92.1904C47.3218 92.127 47.5111 92.127 47.7004 92.1904C47.8897 92.1904 48.079 92.1904 48.2683 92.1904C52.8112 93.3325 57.4802 94.1573 61.8339 96.5683C63.6636 97.5835 64.9255 99.3601 66.0613 101.835C66.8815 103.548 67.6387 105.515 67.9541 107.672L66.3137 152.657L27.1943 152.212L27.5098 107.672C27.7621 105.515 28.5824 103.484 29.3395 101.835Z" fill="#FFE6D7"/>
<path d="M45.3659 95.6167C45.6813 93.8401 47.7635 92.8884 49.404 93.3325C49.9088 93.4594 50.2873 93.7132 50.6659 94.0305C51.8647 93.7767 53.0635 94.538 53.4421 95.7436C53.6314 96.3146 53.6945 96.8222 53.7576 97.3932C53.6314 96.5684 53.8207 97.7105 53.8207 97.9642C53.8838 98.3449 53.7576 98.7891 53.6945 99.2332C53.5052 100.693 52.3064 102.152 50.8552 102.596C48.8992 103.167 47.0064 101.454 45.9968 99.8677C45.1135 98.5353 45.0504 97.076 45.3659 95.6167Z" fill="#3F1C25"/>
<path d="M42.842 93.6497L45.8075 90.3503L49.8457 92.1903L49.9088 92.2538V92.1903L54.01 90.3503L56.9755 93.6497L54.2624 100.756L49.9088 94.6014L45.5551 100.756L42.842 93.6497Z" fill="#FFE7D6"/>
<path d="M51.5492 101.01L54.8933 144.155L50.9183 150.944L46.0599 144.155L48.3944 101.01H51.5492Z" fill="#3F1C25"/>
<path d="M38.4253 102.659C39.3087 107.545 40.5075 112.113 43.6623 115.349C46.2492 117.95 49.9719 119.727 53.6314 120.869C58.4898 122.392 61.7708 122.773 66.6922 122.899C68.9006 122.963 71.1089 122.899 73.2542 122.773C74.3268 122.709 75.3363 122.646 76.409 122.519C76.9137 122.455 77.4185 122.392 77.9233 122.328C76.3459 122.519 78.6804 122.202 78.8066 122.202C82.8447 121.504 86.946 123.217 88.1448 127.531C89.1543 131.211 86.946 136.224 82.8447 136.922C71.3613 138.825 59.1838 138.762 48.079 135.018C42.2111 133.051 36.7848 129.942 32.4312 125.501C27.4467 120.425 25.049 113.573 23.8502 106.657C23.1561 102.596 24.8597 98.4719 29.1502 97.2663C32.8098 96.3146 37.7313 98.5988 38.4253 102.659Z" fill="#FCDACA"/>
<path d="M91.552 122.138C95.6532 123.026 98.9973 127.15 97.9877 131.401C97.4199 133.812 94.9591 134.193 93.3186 133.241C93.1294 133.305 92.877 133.305 92.6246 133.305C90.4793 133.241 88.3972 132.607 86.2519 132.797C84.4852 132.924 83.034 131.211 83.034 129.561C82.9709 124.485 86.5674 121.059 91.552 122.138Z" fill="#FFB39D"/>
<path d="M70.7935 132.099C70.7935 133.495 71.4875 134.637 72.3709 134.637H132.564C133.448 134.637 134.142 133.495 134.142 132.099C134.142 130.703 133.448 129.561 132.564 129.561H72.3709C71.4875 129.561 70.7935 130.703 70.7935 132.099Z" fill="#9393AC"/>
<path d="M78.8066 115.222C78.8066 117.95 81.015 120.171 83.7281 120.171H140.956C143.669 120.171 145.877 117.95 145.877 115.222V80.5159C145.877 77.7876 143.669 75.5669 140.956 75.5669H83.7281C81.015 75.5669 78.8066 77.7876 78.8066 80.5159V115.222Z" fill="#B8B7C9"/>
<path d="M81.4566 115.222C81.4566 117.95 83.665 120.171 86.3781 120.171H143.606C146.319 120.171 148.527 117.95 148.527 115.222V80.5159C148.527 77.7876 146.319 75.5669 143.606 75.5669H86.3781C83.665 75.5669 81.4566 77.7876 81.4566 80.5159V115.222Z" fill="#9393AC"/>
<path d="M121.712 90.4138H111.932V134.51H121.712V90.4138Z" fill="#B8B7C9"/>
<path d="M119.945 92.6345H114.582V107.228H119.945V92.6345Z" fill="#9393AC"/>
<path d="M12.6823 147.073C9.59056 146.756 8.07626 142.441 11.168 140.792C13.0608 139.777 14.6382 138.698 16.9097 138.571C19.0549 138.444 21.2002 138.698 23.2823 139.079C33.567 141.172 41.1384 155.512 43.5992 164.521C44.6087 168.328 46.3123 174.61 42.842 177.655C38.5515 181.399 25.1752 177.275 21.2002 174.737C15.7108 171.184 10.9156 166.361 9.33818 159.826C8.20245 155.131 9.52746 150.119 12.6823 147.073Z" fill="#D9924E"/>
<path d="M332.578 131.528L328.855 105.705C328.729 105.007 328.161 104.499 327.53 104.499H285.887C285.508 104.499 285.13 104.69 284.877 105.007C284.625 105.324 284.499 105.705 284.562 106.085L288.285 131.909C288.411 132.607 288.979 133.114 289.61 133.114H331.253C331.631 133.114 332.01 132.924 332.262 132.607C332.515 132.29 332.641 131.909 332.578 131.528Z" fill="#9393AC"/>
<path d="M329.675 130.006L326.394 107.291C326.331 106.72 325.827 106.276 325.196 106.276H288.537C288.158 106.276 287.843 106.403 287.654 106.72C287.401 106.974 287.338 107.354 287.401 107.672L290.682 130.386C290.745 130.957 291.25 131.401 291.881 131.401H328.54C328.918 131.401 329.234 131.274 329.423 130.957C329.675 130.703 329.739 130.323 329.675 130.006Z" fill="#B8B7C9"/>
<mask id="mask2_767_717" style="mask-type:luminance" maskUnits="userSpaceOnUse" x="287" y="106" width="43" height="26">
<path d="M329.675 130.006L326.394 107.291C326.331 106.72 325.827 106.276 325.196 106.276H288.537C288.158 106.276 287.843 106.403 287.654 106.72C287.401 106.974 287.338 107.354 287.401 107.672L290.682 130.386C290.745 130.957 291.25 131.401 291.881 131.401H328.54C328.918 131.401 329.234 131.274 329.423 130.957C329.675 130.703 329.739 130.323 329.675 130.006Z" fill="white"/>
</mask>
<g mask="url(#mask2_767_717)">
<g opacity="0.6">
<path d="M317.877 101.2C317.813 103.23 318.318 105.134 319.012 107.037C319.138 107.355 319.769 108.624 319.58 108.941C319.58 108.941 316.804 109.195 316.047 109.322C313.081 109.702 310.999 111.098 309.106 113.446C308.16 114.588 307.466 116.11 306.267 116.999C305.005 117.887 303.428 118.204 301.976 118.458C299.2 119.029 296.487 119.156 293.837 120.171C291.124 121.186 288.852 122.709 286.644 124.486C284.436 126.326 282.543 128.483 280.145 130.133C277.495 131.973 274.845 133.495 274.593 136.985C274.467 138.698 276.17 139.459 277.558 139.269C280.335 138.825 282.985 136.414 285.256 134.891C287.843 133.178 289.925 130.704 292.449 128.927C297.749 125.12 304.69 127.15 310.368 123.978C313.271 122.328 314.091 118.902 316.615 117.126C317.687 116.364 319.454 116.428 320.653 115.666C321.725 114.968 322.987 113.89 323.618 112.748C326.521 107.608 321.221 105.451 320.527 100.883C320.337 99.2332 317.94 99.7408 317.877 101.2Z" fill="white"/>
</g>
</g>
<path d="M66.8815 135.906H63.0958V225.559H66.8815V135.906Z" fill="#553238"/>
<path d="M336.3 135.906H332.515V225.559H336.3V135.906Z" fill="#553238"/>
<path d="M374.789 132.797H32.8098V138.825H374.789V132.797Z" fill="#DBDAEA"/>
<path d="M298.695 122.773C295.099 123.534 292.133 126.706 292.07 130.45C291.944 136.224 301.03 133.115 303.995 133.305C305.762 133.432 307.213 131.719 307.213 130.069C307.276 125.12 303.68 121.694 298.695 122.773Z" fill="#FFB39D"/>
<path d="M351.317 102.659C350.434 107.545 349.235 112.113 346.08 115.349C343.493 117.95 339.771 119.727 336.111 120.869C331.253 122.392 327.972 122.773 323.05 122.899C320.842 122.963 318.634 122.899 316.488 122.773C315.416 122.709 314.406 122.646 313.334 122.519C312.829 122.455 312.324 122.392 311.819 122.328C313.397 122.519 311.062 122.202 310.936 122.202C306.898 121.504 302.797 123.217 301.598 127.531C300.588 131.211 302.797 136.224 306.898 136.922C318.381 138.825 330.559 138.762 341.664 135.018C347.532 133.051 352.958 129.942 357.311 125.501C362.296 120.425 364.694 113.573 365.892 106.657C366.586 102.596 364.883 98.4719 360.592 97.2663C356.996 96.3146 352.074 98.5988 351.317 102.659Z" fill="#929159"/>
<path d="M327.846 211.473C327.846 211.473 300.084 224.099 310.494 226.574C320.905 229.048 326.268 222.133 327.972 220.419C327.972 220.419 331.064 223.973 331.568 221.117C331.631 221.054 332.136 209.379 327.846 211.473Z" fill="#DC9A79"/>
<path d="M330.748 212.806C330.685 202.654 327.278 192.629 328.792 182.477C329.612 176.894 335.985 173.024 340.276 169.915C346.585 165.283 352.705 160.588 359.267 156.273C366.271 151.705 358.952 141.236 351.885 145.804C344.566 150.563 337.689 155.766 330.748 160.968C324.312 165.727 318.129 171.184 316.047 179.051C314.343 185.523 315.668 193.073 316.678 199.545C317.182 202.844 318.192 206.08 318.76 209.379C319.202 211.727 319.58 214.011 320.463 216.041L330.748 212.806Z" fill="#646375"/>
<path d="M360.655 192.629C360.655 192.629 332.893 205.255 343.304 207.73C353.715 210.204 359.078 203.288 360.782 201.575C360.782 201.575 363.873 205.128 364.378 202.273C364.441 202.273 364.946 190.599 360.655 192.629Z" fill="#DC9A79"/>
<path d="M363.558 193.961C363.495 183.81 360.088 173.785 361.602 163.633C362.422 158.05 368.795 154.179 373.085 151.07C379.395 146.439 385.515 141.743 392.077 137.429C399.081 132.861 391.762 122.392 384.695 126.96C377.376 131.719 370.498 136.921 363.558 142.124C357.122 146.883 350.939 152.339 348.857 160.207C347.153 166.679 348.478 174.229 349.488 180.701C349.992 184 351.002 187.236 351.57 190.535C352.011 192.883 352.39 195.167 353.273 197.197L363.558 193.961Z" fill="#646375"/>
<path d="M353.526 63.1311C353.526 63.1311 352.453 71.189 349.551 72.0139C349.551 72.0139 349.74 75.1863 356.302 74.5518L353.526 63.1311Z" fill="#FFB39D"/>
<path d="M360.719 54.629C360.908 54.629 361.034 54.5656 361.223 54.5656C361.223 54.5656 361.223 54.5656 361.16 54.5656C361.097 54.5656 360.908 54.5656 360.719 54.629Z" fill="#49291C"/>
<path d="M371.95 83.054H363.621V97.4567H371.95V83.054Z" fill="#FEAF9A"/>
<path d="M381.856 56.2787C381.288 49.9973 371.95 47.269 367.091 47.269C361.728 47.3325 354.346 49.7435 353.778 56.2787C353.399 60.149 353.21 64.0828 353.273 68.0166C353.336 71.5697 353.084 75.567 354.157 78.9932C357.564 89.3352 377.439 89.0815 381.351 79.3104C382.613 76.0746 382.297 72.0139 382.36 68.6511C382.424 64.527 382.234 60.3394 381.856 56.2787Z" fill="#FFB39D"/>
<path d="M354.788 67.382C354.788 68.651 355.355 69.6662 356.113 69.6662C356.807 69.6662 357.438 68.651 357.438 67.382C357.438 66.1131 356.87 65.0979 356.113 65.0979C355.355 65.0979 354.788 66.1131 354.788 67.382Z" fill="#49291C"/>
<path d="M355.734 60.4663C356.491 59.705 357.374 61.1008 357.753 61.6719C358.069 62.116 358.889 62.1794 359.015 61.4815C359.267 60.2126 358.573 59.0705 357.438 58.5629C356.302 58.0553 355.229 58.5629 354.661 59.5781C354.22 60.3394 355.166 61.0374 355.734 60.4663Z" fill="#715044"/>
<path d="M356.554 77.6607C356.428 77.5338 356.176 77.5972 356.049 77.6607C355.292 78.1683 355.418 79.2469 354.724 79.7545C354.661 79.8179 354.598 79.8814 354.472 79.8814C354.661 80.3255 354.914 80.7062 355.166 81.1503C356.428 80.7696 357.879 78.6124 356.554 77.6607Z" fill="white"/>
<path d="M387.85 156.019C387.85 160.017 380.783 163.189 372.076 163.189C363.369 163.189 356.302 159.953 356.302 156.019C356.302 152.022 363.369 148.85 372.076 148.85C380.783 148.786 387.85 152.022 387.85 156.019Z" fill="#7B7068"/>
<path d="M388.355 101.835C387.219 99.4236 386.02 97.647 384.127 96.5684C375.041 91.556 364.946 91.556 355.86 96.5684C351.633 98.916 349.866 105.705 349.929 110.083C349.929 113.763 350.118 117.506 350.245 121.186C350.497 129.688 350.939 138.254 351.254 146.756C351.254 147.01 351.38 152.593 351.443 152.593L390.563 152.149L390.247 107.608C389.995 105.515 389.175 103.484 388.355 101.835Z" fill="#929159"/>
<path d="M398.513 206.524H396.368H394.349H378.196C378.638 205.7 378.953 204.748 378.953 203.796C378.953 201.512 377.565 199.545 375.609 198.72V158.748H371.003V198.911C369.3 199.862 368.101 201.639 368.101 203.733C368.101 204.748 368.353 205.7 368.858 206.461H352.705H350.686H348.541V211.093H350.686V217.691H352.705V211.093H372.517V217.691H374.537V211.093H394.349V217.691H396.368V211.093H398.513V206.524Z" fill="#B8B8B8"/>
<path d="M390.878 220.737C390.878 223.211 392.834 225.178 395.295 225.178C397.756 225.178 399.712 223.211 399.712 220.737C399.712 218.262 397.756 216.295 395.295 216.295C392.897 216.295 390.878 218.262 390.878 220.737Z" fill="#55637A"/>
<path d="M347.216 220.737C347.216 223.211 349.172 225.178 351.633 225.178C354.093 225.178 356.049 223.211 356.049 220.737C356.049 218.262 354.093 216.295 351.633 216.295C349.172 216.295 347.216 218.262 347.216 220.737Z" fill="#55637A"/>
<path d="M369.047 220.737C369.047 223.211 371.003 225.178 373.464 225.178C375.925 225.178 377.881 223.211 377.881 220.737C377.881 218.262 375.925 216.295 373.464 216.295C371.066 216.295 369.047 218.262 369.047 220.737Z" fill="#55637A"/>
<path d="M416.811 119.41C416.243 112.177 413.53 106.466 407.409 102.469C387.345 89.5257 363.684 104.69 350.876 120.171C344.818 127.531 339.014 135.018 333.966 143.076C329.486 150.182 325.259 158.557 327.089 167.25C329.171 177.021 338.067 181.906 347.216 183.048C353.967 183.873 360.908 183.556 367.722 183.873C375.357 184.254 383.118 183.937 390.563 182.16C398.261 180.384 405.453 176.133 410.059 169.661C414.602 163.316 414.792 154.306 415.233 146.756C415.864 137.683 417.568 128.419 416.811 119.41Z" fill="#D9924E"/>
<path d="M391.383 76.7092C391.383 76.3285 392.014 77.2802 391.383 76.7092V76.7092Z" fill="#715044"/>
<path d="M406.905 85.5919C405.201 81.8484 401.163 80.3257 399.838 76.4553C398.071 71.4429 400.595 65.5422 399.649 60.3395C398.134 52.2181 392.897 45.1753 385.137 42.3202C377.25 39.4015 368.479 44.0967 364.315 50.8222C362.485 53.8677 360.971 57.9284 361.16 61.545C361.35 65.3519 363.432 68.2705 366.082 70.8084C367.281 71.9505 368.542 73.0291 369.741 74.1712C369.3 73.7271 369.741 74.5519 369.867 74.5519C369.931 74.8691 369.994 75.3133 369.994 75.3767C369.994 75.8843 369.931 76.3284 369.931 76.836C370.057 75.567 369.678 77.7243 369.678 77.7243C369.3 79.3105 368.858 80.8967 368.416 82.4829C366.46 89.716 366.713 97.5202 372.644 102.85C379.332 108.877 389.616 113.128 398.197 108.814C406.4 104.753 410.754 94.1574 406.905 85.5919ZM399.27 78.105C399.27 78.2319 399.333 78.3588 399.396 78.5491C399.333 78.3588 399.27 78.1684 399.207 78.0415C399.27 78.0415 399.27 78.0415 399.27 78.105Z" fill="#715044"/>
<path d="M363.495 71.2526C364.063 72.3312 365.135 73.1561 366.397 73.2195C367.344 73.283 368.416 72.7754 369.047 72.014C370.435 70.2374 370.877 67.4457 369.3 65.6057C367.975 64.083 365.135 64.4002 364.063 66.1133C363.053 67.5726 362.611 69.6664 363.495 71.2526Z" fill="#FFB39D"/>
<path d="M376.114 44.9849C376.177 45.8098 376.177 45.6829 376.051 44.6042C375.925 44.0967 375.735 43.6525 375.546 43.2084C374.852 42.0663 373.716 41.2415 372.644 40.4801C370.372 38.8939 367.028 39.1477 364.504 39.5918C360.214 40.2898 354.346 42.7642 352.453 47.0153C350.118 52.1546 353.21 57.3573 358.636 58.436C363.621 59.4511 368.479 57.8649 372.328 54.6291C373.969 53.2967 374.41 51.076 374.032 49.1091C375.798 48.9822 377.187 46.6346 376.114 44.9849Z" fill="#715044"/>
</g>
<defs>
<clipPath id="clip0_767_717">
<rect width="417" height="230" fill="white"/>
</clipPath>
</defs>
</svg>
