<svg width="102" height="94" viewBox="0 0 102 94" fill="none" xmlns="http://www.w3.org/2000/svg">
<path d="M0 12C0 5.37258 5.37258 0 12 0H102V94H12C5.37258 94 0 88.6274 0 82V12Z" fill="#3464FD"/>
<g clip-path="url(#clip0_758_481)">
<path d="M72.0906 20C73.517 20.3396 74.7396 21.0188 75.5547 22.2415C76.6415 23.9396 76.8453 25.7056 76.0302 27.4717C75.2151 29.3056 73.7208 30.3245 71.7509 30.5283C70.8 30.6641 69.8491 30.4603 68.966 30.0528C68.6943 29.9169 68.4906 29.9169 68.2189 30.1207C66.5208 31.4113 64.7547 32.7698 63.0566 34.0603C62.8528 34.2641 62.7849 34.4 62.8528 34.6717C63.7358 38.2037 61.4943 41.3283 57.8943 41.532C55.1094 41.6679 52.9359 39.6301 52.4604 37.1169C52.3245 36.3018 52.3925 35.4868 52.5962 34.6717C52.7321 34.332 52.6642 34.1283 52.3925 33.9245C50.7623 32.6339 49.2 31.2754 47.5698 29.9849C47.366 29.849 47.1623 29.7811 46.9585 29.9169C45.2604 30.8679 43.5623 30.9358 41.8642 30.0528C41.5925 29.9169 41.3887 29.9849 41.1849 30.1886C39.2151 32.2943 37.2453 34.4 35.2075 36.4377C34.9359 36.7094 35.0717 36.9132 35.2755 37.1849C36.4302 38.9509 36.4981 40.8528 35.5472 42.7547C34.3925 44.9283 31.8113 46.0151 29.366 45.3358C26.9887 44.6566 25.3585 42.4151 25.4943 39.9018C25.6981 36.7094 28.483 34.4679 31.6075 34.8754C31.9472 34.9434 32.1509 34.8754 32.4226 34.6037C34.5962 32.2943 36.7698 29.9849 39.0113 27.6754C39.283 27.4037 39.283 27.2 39.2151 26.8603C38.6038 24.6868 39.0792 22.7849 40.7774 21.2905C42.4075 19.8641 44.3094 19.5245 46.3472 20.3396C48.4528 21.2226 49.4717 22.8528 49.6755 25.0943C49.7434 25.6377 49.6075 26.1811 49.4717 26.7245C49.4038 27.0641 49.4717 27.2 49.6755 27.4037C51.3057 28.7622 52.9358 30.0528 54.566 31.4113C54.7698 31.5471 54.9057 31.6151 55.1774 31.4792C56.8755 30.5962 58.6415 30.5962 60.3396 31.4792C60.6113 31.6151 60.7472 31.6151 61.0189 31.4113C62.6491 30.1886 64.2792 28.8981 65.9094 27.6754C66.1132 27.4717 66.2491 27.3358 66.1811 26.9962C64.9585 23.8717 66.9962 20.6792 70.0528 20.0679C70.0528 20.0679 70.1208 20.0679 70.1208 20C70.8 20 71.4113 20 72.0906 20ZM30.8604 42.3471C32.0151 42.3471 32.8981 41.3962 32.8981 40.3094C32.8981 39.1547 31.9472 38.2717 30.8604 38.2717C29.7057 38.2717 28.7547 39.2226 28.7547 40.3094C28.7547 41.4641 29.7057 42.3471 30.8604 42.3471ZM71.1396 23.2603C70.0528 23.2603 69.1019 24.1434 69.034 25.2981C69.034 26.3849 69.9849 27.3358 71.0717 27.4037C72.1585 27.4037 73.1774 26.4528 73.1774 25.366C73.1774 24.2113 72.2264 23.2603 71.1396 23.2603ZM44.3094 23.3962C43.1547 23.3962 42.2717 24.2113 42.2717 25.366C42.2717 26.5207 43.1547 27.4717 44.3094 27.4717C45.4642 27.4717 46.3472 26.5886 46.3472 25.4339C46.2792 24.2792 45.3962 23.3962 44.3094 23.3962ZM59.7283 36.2339C59.7283 35.0792 58.9132 34.1962 57.6906 34.1962C56.5359 34.1962 55.6528 35.0792 55.6528 36.2339C55.6528 37.3886 56.5359 38.3396 57.6906 38.3396C58.8453 38.3396 59.7283 37.3886 59.7283 36.2339Z" fill="white"/>
<path d="M65.8415 74C65.8415 73.7962 65.8415 73.6603 65.8415 73.4566C65.8415 64.1509 65.8415 54.8453 65.8415 45.5396C65.8415 43.0943 67.5396 40.9887 69.917 40.4453C72.9736 39.766 76.0302 42.0075 76.234 45.2C76.3019 45.9471 76.3019 46.6264 76.3019 47.3736C76.3019 56.2717 76.3019 65.1019 76.3019 74C72.7698 74 69.3057 74 65.8415 74ZM69.1019 57.8339C69.1019 61.9094 69.1019 66.0528 69.1019 70.1283C69.1019 70.6037 69.2377 70.8075 69.7811 70.8075C70.5962 70.7396 71.4113 70.8075 72.2264 70.8075C72.9736 70.8075 72.9736 70.8075 72.9736 70.0603C72.9736 62.0452 72.9736 54.0981 72.9736 46.083C72.9736 45.8792 72.9736 45.7434 72.9736 45.5396C72.9057 44.3849 72.0226 43.6377 70.8679 43.6377C69.7811 43.7056 69.1019 44.5207 69.1019 45.7434C69.1019 49.7509 69.1019 53.8264 69.1019 57.8339Z" fill="white"/>
<path d="M38.9434 74C38.9434 73.8641 38.9434 73.6603 38.9434 73.5245C38.9434 65.7132 38.9434 57.8339 38.9434 50.0226C38.9434 47.4415 40.5057 45.4037 42.883 44.7924C46.2113 43.9094 49.4038 46.4226 49.4717 49.8188C49.4717 52.8075 49.4717 55.7962 49.4717 58.8528C49.4717 63.6754 49.4717 68.4981 49.4717 73.3207C49.4717 73.5924 49.4717 73.7962 49.4717 74.0679C45.9396 74 42.4075 74 38.9434 74ZM42.2717 59.9396C42.2717 63.3358 42.2717 66.732 42.2717 70.1283C42.2717 70.6037 42.4075 70.8075 42.883 70.8075C43.6981 70.7396 44.5811 70.8075 45.3962 70.8075C46.0755 70.8075 46.0755 70.8075 46.0755 70.1283C46.0755 64.966 46.0755 59.8037 46.0755 54.6415C46.0755 53.0792 46.0755 51.449 46.0755 49.8867C46.0755 49.2754 45.8717 48.8 45.4642 48.4603C44.8528 47.9169 44.1057 47.7811 43.3585 48.1207C42.6113 48.4603 42.2038 49.0717 42.2038 49.8867C42.2038 53.2151 42.2717 56.6113 42.2717 59.9396Z" fill="white"/>
<path d="M52.4604 73.9999C52.4604 68.8377 52.3925 63.7433 52.4604 58.5811C52.4604 55.5924 54.8377 53.283 57.6906 53.283C60.4075 53.283 62.8528 55.3886 62.8528 58.1056C62.9208 63.4037 62.8528 68.7018 62.8528 73.9999C59.3887 73.9999 55.9245 73.9999 52.4604 73.9999ZM59.5925 64.3547C59.5925 62.4528 59.5925 60.483 59.5925 58.5811C59.5925 57.4943 58.7774 56.6792 57.6906 56.6792C56.6038 56.6792 55.7208 57.4264 55.7208 58.5811C55.7208 62.5207 55.7208 66.4603 55.7208 70.3999C55.7208 70.7396 55.8566 70.8754 56.1962 70.8754C57.0792 70.8754 58.0302 70.8754 58.9132 70.8754C59.3887 70.8754 59.5245 70.7396 59.5245 70.2641C59.5924 68.2264 59.5925 66.2565 59.5925 64.3547Z" fill="white"/>
<path d="M25.6302 74C25.6302 73.5245 25.6302 72.9811 25.6302 72.5057C25.6302 69.4491 25.6302 66.3925 25.6302 63.4038C25.6302 60.6189 27.6679 58.3774 30.3849 58.1057C33.034 57.834 35.4113 59.7359 35.9547 62.3849C36.0226 62.6566 36.0226 62.9962 36.0226 63.2679C36.0226 66.6642 36.0226 70.1283 36.0226 73.5245C36.0226 73.6604 36.0226 73.8642 35.9547 74C32.5585 74 29.0943 74 25.6302 74ZM28.8906 66.7321C28.8906 67.9547 28.8906 69.1094 28.8906 70.3321C28.8906 70.6038 28.9585 70.8076 29.2981 70.8076C30.317 70.8076 31.3359 70.8076 32.3547 70.8076C32.6264 70.8076 32.7623 70.7396 32.7623 70.4679C32.7623 68.0906 32.7623 65.6453 32.7623 63.2679C32.7623 62.1132 31.8113 61.366 30.6566 61.434C29.6377 61.434 28.9585 62.1811 28.8906 63.3359C28.8906 64.4906 28.8906 65.5774 28.8906 66.7321Z" fill="white"/>
</g>
<defs>
<clipPath id="clip0_758_481">
<rect width="51.0113" height="54" fill="white" transform="translate(25.4943 20)"/>
</clipPath>
</defs>
</svg>
