<svg width="102" height="94" viewBox="0 0 102 94" fill="none" xmlns="http://www.w3.org/2000/svg">
<path d="M0 12C0 5.37258 5.37258 0 12 0H102V94H12C5.37258 94 0 88.6274 0 82V12Z" fill="#3464FD"/>
<g clip-path="url(#clip0_758_497)">
<path d="M77.9742 42.3839C77.9742 45.1175 77.9742 47.851 77.9742 50.5845C77.6648 51.2034 77.149 51.5644 76.4785 51.7707C74.9828 52.2349 73.5387 52.8023 72.0946 53.1633C70.9083 53.4728 70.1347 54.0401 69.8252 55.2779C69.7221 55.6905 69.6705 56 69.8768 56.361C70.7536 58.063 71.5788 59.765 72.404 61.467C72.9714 62.6017 72.8682 63.1175 71.9914 63.9942C70.702 65.2836 69.4126 66.573 68.1232 67.8624C67.2464 68.7392 66.6791 68.8424 65.596 68.275C64.2034 67.6046 62.8109 66.9856 61.5215 66.212C60.49 65.5931 59.51 65.4384 58.4785 66.0573C58.1175 66.2636 57.8596 66.4183 57.7565 66.8309C57.1891 68.6877 56.5702 70.5444 55.9513 72.4527C55.745 73.1232 55.4355 73.6389 54.765 73.9484C52.2894 73.9484 49.8653 73.9484 47.3897 73.9484C46.7708 73.6389 46.4097 73.1232 46.2034 72.4527C45.7393 70.957 45.1719 69.4613 44.7593 67.914C44.4499 66.6762 43.8825 65.9541 42.6447 65.6447C42.2837 65.5415 41.9742 65.4899 41.6132 65.6963C39.9112 66.573 38.2092 67.3983 36.4556 68.275C35.3725 68.8424 34.8052 68.7392 33.9284 67.8624C32.639 66.573 31.3496 65.2836 30.1117 64.0458C29.1834 63.1175 29.1318 62.6017 29.6991 61.4155C30.3696 60.0745 30.937 58.6819 31.7106 57.4441C32.3811 56.361 32.4842 55.3811 31.8138 54.298C31.6075 53.9885 31.4527 53.7306 31.0917 53.6275C29.1834 53.0086 27.2751 52.3897 25.3668 51.7707C24.3868 51.4097 24.0258 50.894 24.0258 49.8624C24.0258 47.9026 24.0258 45.9427 24.0258 43.9828C24.0258 39.702 25.8825 36.5043 29.4413 34.2865C29.8539 34.0286 29.9054 33.8739 29.5444 33.5129C27.5845 31.4498 26.8625 29.0258 27.4298 26.2922C28.2034 22.7335 31.4011 20.1547 34.8567 20C38.6734 19.8452 42.0774 22.424 42.9542 26.0344C43.0057 26.2407 43.0573 26.3954 43.1089 26.7048C44.0888 22.3209 47.235 20.2579 50.1232 20.0515C54.8166 19.7421 57.6533 22.1146 58.9427 26.6017C59.0458 26.2407 59.0974 25.9312 59.2006 25.6733C60.2837 22.063 63.9456 19.5358 67.7106 20.0515C70.9599 20.5157 73.2292 22.2693 74.3123 25.3639C75.3954 28.4068 74.6734 31.192 72.4556 33.5129C72.1461 33.8739 72.1461 34.0286 72.5587 34.2349C73.7966 34.957 74.8281 35.8854 75.7049 37.02C76.9943 38.6705 77.6648 40.424 77.9742 42.3839ZM32.0716 48.573C31.0401 48.573 30.0602 48.573 29.0287 48.573C28.5645 48.573 28.1003 48.573 27.6361 48.573C27.4814 48.573 27.3266 48.573 27.3266 48.7278C27.3266 48.8825 27.4814 48.9341 27.5845 48.9856C27.6877 49.0372 27.7908 49.0372 27.894 49.0888C29.6476 49.6561 31.3496 50.2235 33.1032 50.7908C33.8252 50.9971 34.2894 51.4613 34.5473 52.1834C34.8567 53.0602 35.1662 53.9885 35.6304 54.8137C35.9914 55.5358 35.9398 56.2063 35.5788 56.9283C34.7536 58.5272 33.9799 60.1776 33.1547 61.7765C33 62.0859 33 62.3438 33.2579 62.6017C33.9284 63.2206 34.5989 63.8911 35.2178 64.5616C35.5272 64.9226 35.8367 64.9742 36.2493 64.7679C37.8481 63.9427 39.4986 63.169 41.0974 62.3438C41.7163 62.0344 42.3868 61.9828 43.0057 62.2922C43.8825 62.7564 44.7593 63.1175 45.6877 63.3753C46.4613 63.6332 46.9255 64.0974 47.1318 64.871C47.6991 66.6762 48.2665 68.4298 48.8338 70.2349C48.937 70.596 49.1433 70.7507 49.5559 70.7507C50.4842 70.7507 51.361 70.6991 52.2894 70.7507C52.7536 70.7507 52.9599 70.596 53.1146 70.1318C53.682 68.3266 54.2493 66.573 54.8166 64.7679C55.0229 64.0458 55.4355 63.5816 56.1576 63.3753C57.0344 63.0659 57.9628 62.7564 58.788 62.2922C59.51 61.8796 60.2321 61.9312 60.9542 62.2922C62.553 63.1175 64.2034 63.8911 65.8023 64.7163C66.1633 64.871 66.3696 64.871 66.6275 64.5616C67.298 63.8911 67.9685 63.2206 68.639 62.5501C68.9484 62.2407 69 61.9828 68.7937 61.5702C67.9685 59.9713 67.1948 58.3209 66.3696 56.722C66.0086 56.0516 66.0086 55.3811 66.3696 54.7106C66.7822 53.8854 67.1433 53.0086 67.4527 52.1318C67.7106 51.3581 68.1748 50.894 69 50.6361C70.702 50.1203 72.4556 49.5014 74.1576 48.9341C74.2092 48.9341 74.3123 48.8825 74.3639 48.8825C74.5186 48.8309 74.7765 48.8309 74.7249 48.573C74.6734 48.3667 74.4671 48.4183 74.3123 48.4183C74.2092 48.4183 74.1576 48.4183 74.0544 48.4183C71.3725 48.4183 68.639 48.4183 65.957 48.4183C65.4413 48.4183 65.1834 48.573 65.0802 49.1404C64.6676 51.8739 63.4814 54.1948 61.7278 56.2579C56.8797 61.9828 48.1117 62.808 42.3352 58.2177C39.447 55.8968 37.5903 52.957 36.9713 49.2435C36.8682 48.5215 36.8682 48.5215 36.0946 48.5215C34.7536 48.573 33.4126 48.573 32.0716 48.573ZM51.0516 45.3238C54.4556 45.3238 57.8596 45.3238 61.2636 45.3238C61.8309 45.3238 61.9341 45.2722 61.7794 44.6533C60.7479 39.5988 56.0029 35.6275 50.3811 35.9885C45.4814 36.2464 41.3037 39.9083 40.3238 44.6017C40.1691 45.3238 40.2206 45.3753 40.9427 45.3753C44.2951 45.3238 47.6476 45.3238 51.0516 45.3238ZM32.0201 45.3238C33.4126 45.3238 34.8052 45.3238 36.1977 45.3238C36.7135 45.3238 36.9198 45.169 36.9713 44.6533C37.3324 42.2292 38.3123 40.0114 39.8596 38.1031C40.1175 37.7421 40.0659 37.5874 39.7564 37.3811C36.6619 35.1633 32.0716 35.6275 29.4928 38.4642C27.8424 40.2177 27.2751 42.3324 27.3266 44.7048C27.3266 45.2206 27.4814 45.3753 27.9971 45.3753C29.2865 45.2722 30.6275 45.3238 32.0201 45.3238ZM69.9799 45.3238C71.3725 45.3238 72.765 45.3238 74.1576 45.3238C74.6734 45.3238 74.8281 45.169 74.8281 44.6533C74.8281 44.0859 74.7765 43.5702 74.7249 43.0028C74.3639 40.0114 72.8166 37.8452 70.0831 36.659C67.4011 35.4728 64.7708 35.7306 62.2951 37.3811C61.9857 37.5874 61.9341 37.7421 62.192 38.0515C63.7908 40.0114 64.7708 42.2808 65.1318 44.7564C65.1834 45.169 65.3897 45.3238 65.8023 45.3238C67.1948 45.2722 68.5874 45.3238 69.9799 45.3238ZM41.7679 48.573C41.6132 48.573 41.51 48.573 41.3553 48.573C40.1175 48.573 40.1175 48.573 40.4269 49.7593C41.7679 54.9169 46.9255 58.6819 52.8052 57.7536C57.2407 57.0315 60.9542 53.5243 61.8309 49.1404C61.9341 48.6762 61.7794 48.5215 61.3668 48.5215C60.7479 48.5215 60.1805 48.573 59.5616 48.5215C59.0458 48.4699 58.8395 48.6762 58.6848 49.192C57.7564 52.3381 54.8166 54.7106 51.6705 54.8653C48.0086 55.02 44.914 53.1117 43.6246 49.8109C43.1089 48.573 43.1089 48.573 41.7679 48.573ZM39.9112 27.9427C39.8596 25.3639 37.745 23.3008 35.2178 23.3008C32.639 23.3008 30.5759 25.4154 30.5759 27.9427C30.5759 30.5215 32.7421 32.6877 35.2693 32.6361C37.8481 32.5845 39.9628 30.4699 39.9112 27.9427ZM50.9484 32.6361C53.4241 32.6361 55.5903 30.8309 55.6418 28.0458C55.6934 25.6217 53.8883 23.404 51.0516 23.3008C48.5759 23.2493 46.3582 25.106 46.3066 27.8911C46.3582 30.4183 48.2149 32.5329 50.9484 32.6361ZM66.8338 32.6361C69.361 32.6361 71.4756 30.5215 71.4756 27.9942C71.4756 25.467 69.4126 23.3524 66.8338 23.3008C64.3066 23.2493 62.0888 25.467 62.1404 27.9942C62.192 30.573 64.3066 32.6361 66.8338 32.6361ZM51.0516 48.573C49.7622 48.573 48.4728 48.573 47.235 48.573C46.8224 48.573 46.6676 48.6762 46.8739 49.0888C47.7507 50.7392 49.1433 51.616 51 51.616C52.8567 51.616 54.2493 50.7392 55.1777 49.0888C55.384 48.6762 55.2292 48.573 54.8166 48.573C53.5788 48.573 52.341 48.573 51.0516 48.573ZM43.1089 29.3352C42.7479 31.0372 41.9742 32.5329 40.6848 33.7192C40.4269 33.9771 40.6332 34.0802 40.8395 34.1834C41.3037 34.4412 41.7679 34.8023 42.2321 35.1633C42.49 35.3696 42.6447 35.3696 42.9542 35.2149C43.6246 34.6991 44.3467 34.2865 45.1203 33.9771C45.4814 33.8223 45.4298 33.6676 45.2235 33.4097C44.7593 32.9455 44.3983 32.4298 44.0888 31.8624C43.6246 31.0372 43.3668 30.212 43.1089 29.3352ZM58.9427 29.3352C58.5817 30.8825 57.9112 32.275 56.8281 33.4613C56.6218 33.6676 56.6218 33.8223 56.8797 33.9255C57.7049 34.2865 58.4785 34.7507 59.2006 35.2664C59.4069 35.3696 59.5616 35.4212 59.7163 35.2664C60.2321 34.8538 60.6963 34.4928 61.2636 34.1834C61.4699 34.0802 61.5215 33.9255 61.3152 33.7192C60.0774 32.4813 59.3037 31.0372 58.9427 29.3352Z" fill="white"/>
</g>
<defs>
<clipPath id="clip0_758_497">
<rect width="53.9484" height="54" fill="white" transform="translate(24.0258 20)"/>
</clipPath>
</defs>
</svg>
