<svg width="102" height="94" viewBox="0 0 102 94" fill="none" xmlns="http://www.w3.org/2000/svg">
<path d="M0 12C0 5.37258 5.37258 0 12 0H102V94H12C5.37258 94 0 88.6274 0 82V12Z" fill="#3464FD"/>
<g clip-path="url(#clip0_758_490)">
<path d="M78 30.7063C78 42.7509 78 54.8624 78 66.907C78 66.9739 77.9331 67.0408 77.9331 67.1747C77.3978 69.3159 75.3234 70.788 72.7807 70.788C58.2602 70.7211 43.7398 70.788 29.2193 70.788C28.9517 70.788 28.7509 70.788 28.4833 70.788C27.4796 70.7211 26.5428 70.3866 25.7398 69.7843C24.803 69.0483 24.3346 68.1115 24 66.9739C24 54.9293 24 42.8178 24 30.7732C24.4015 29.9702 25.0037 29.6356 25.9405 29.7025C27.8141 29.7695 29.6877 29.7025 31.4944 29.7025C34.1041 29.7025 36.6468 29.7025 39.2565 29.7025C39.7249 29.7025 39.9257 29.5687 39.9257 29.1003C39.9257 28.7657 39.9257 28.3643 39.9257 28.0297C39.9926 25.5538 42.0669 23.4795 44.5428 23.4795C48.8922 23.4795 53.2416 23.4795 57.5242 23.4795C58.8625 23.4795 60 24.0817 60.9368 25.0854C61.9405 26.223 62.2082 27.5613 62.1413 29.0334C62.0743 29.7695 62.1413 29.7695 62.8773 29.7695C67.2937 29.7695 71.71 29.7695 76.1264 29.7695C76.9963 29.5687 77.5985 29.8364 78 30.7063ZM74.7881 41.4795C74.5874 41.6133 74.5874 41.7472 74.5874 41.9479C73.8513 44.0892 73.1822 46.2304 72.4461 48.3717C71.71 50.5799 69.9703 51.7843 67.6283 51.7843C65.2193 51.7843 62.8773 51.7843 60.4684 51.7843C58.9963 51.7843 58.9963 51.7843 58.9963 53.2564C58.9963 54.3271 58.3271 54.9293 57.2565 54.9293C55.9182 54.9293 54.5799 54.9293 53.2416 54.9293C50.4312 54.9293 47.6208 54.9293 44.8104 54.9293C43.7398 54.9293 43.0706 54.2602 43.0706 53.1895C43.0706 52.9219 43.0706 52.7211 43.0706 52.4535C43.0706 51.7843 43.0706 51.7843 42.4015 51.7843C39.658 51.7843 36.9145 51.7843 34.171 51.7843C32.4312 51.7843 31.0929 50.9814 30.1561 49.5761C29.6877 48.8401 29.487 47.9033 29.1524 47.1003C28.5502 45.2267 27.881 43.42 27.2788 41.5464H27.2119C27.2119 41.6802 27.2119 41.8141 27.2119 41.9479C27.2119 49.7769 27.2119 57.6728 27.2119 65.5018C27.2119 65.6356 27.2119 65.8364 27.2119 65.9702C27.3457 66.8401 27.8141 67.3754 28.7509 67.4423C28.9517 67.4423 29.1524 67.4423 29.3532 67.4423C43.7398 67.4423 58.1933 67.4423 72.5799 67.4423C72.8476 67.4423 73.1822 67.4423 73.4498 67.3754C74.119 67.2416 74.5204 66.8401 74.6543 66.1709C74.7212 65.9033 74.7212 65.6356 74.7212 65.368C74.7212 57.539 74.7212 49.7769 74.7212 41.9479C74.7881 41.8141 74.7881 41.6802 74.7881 41.4795ZM51.0335 32.8475C43.539 32.8475 36.0446 32.8475 28.5502 32.8475C27.881 32.8475 27.881 32.8475 28.0818 33.4498C29.6208 37.9999 31.0929 42.4832 32.632 47.0334C33.0335 48.2379 33.5019 48.5724 34.7063 48.5724C37.0483 48.5724 39.3903 48.5724 41.7993 48.5724C43.2714 48.5724 43.0706 48.7732 43.0706 47.3011C43.0706 46.0297 43.6729 45.4274 45.0112 45.4274C47.5539 45.4274 50.0967 45.4274 52.6394 45.4274C54.1784 45.4274 55.7175 45.4274 57.2565 45.4274C58.3941 45.4274 58.9963 46.0966 58.9963 47.1672C58.9963 47.4349 58.9963 47.6356 58.9963 47.9033C58.9294 48.4386 59.1301 48.5724 59.6654 48.5724C62.2082 48.5724 64.7509 48.5724 67.2937 48.5724C68.632 48.5724 69.0335 48.2379 69.4349 47.0334C70.9071 42.5501 72.4461 38.0669 73.9182 33.5836C74.119 32.9144 74.119 32.9144 73.3829 32.9144C65.9554 32.8475 58.5279 32.8475 51.0335 32.8475ZM50.9665 29.5687C53.2416 29.5687 55.5167 29.5687 57.7918 29.5687C58.9294 29.5687 58.8625 29.6356 58.8625 28.4981C58.8625 27.0929 58.2602 26.4906 56.855 26.4906C52.9071 26.4906 49.026 26.4906 45.0781 26.4906C43.6729 26.4906 43.0706 27.0929 43.0706 28.4981C43.0706 28.6319 43.0706 28.6988 43.0706 28.8327C43.0706 29.6356 43.0706 29.6356 43.8067 29.6356C46.2156 29.5687 48.6245 29.5687 50.9665 29.5687ZM50.9665 48.6393C49.6283 48.6393 48.223 48.6393 46.8848 48.6393C46.4833 48.6393 46.2825 48.7732 46.2825 49.1747C46.2825 49.8438 46.2825 50.5129 46.2825 51.249C46.2825 51.5836 46.4164 51.7174 46.7509 51.7174C49.5613 51.7174 52.3717 51.7174 55.2491 51.7174C55.5836 51.7174 55.7175 51.5836 55.7175 51.249C55.7175 50.5799 55.7175 49.9107 55.7175 49.2416C55.7175 48.7732 55.5836 48.6393 55.1152 48.6393C53.71 48.6393 52.3717 48.6393 50.9665 48.6393Z" fill="white"/>
</g>
<defs>
<clipPath id="clip0_758_490">
<rect width="54" height="47.4424" fill="white" transform="translate(24 23.2788)"/>
</clipPath>
</defs>
</svg>
